<svg xmlns="http://www.w3.org/2000/svg" viewBox="0 0 577 73"><g fill="#455A64"><path d="M19.798 2.58a40.138 40.138 0 013.287 2.765c.897 1.046 1.644 2.167 2.092 3.362.374 1.195.673 2.465.972 3.66.224 1.195.224 2.465 0 3.811-.224 1.344-1.047 2.166-2.391 2.316-.374.075-.598 0-.673-.299-.224.149-.299.149-.299 0a1.816 1.816 0 00-.897 0 3.345 3.345 0 00-.821-.598c-.374.299-.673.299-.972 0 0-.149-.075-.149-.299 0-.598-.224-1.27-.299-1.868-.224-1.942 0-3.735.523-5.453 1.494l-1.793 1.793a61.632 61.632 0 01-2.092 2.465c-.822.897-1.121 1.942-.971 3.063v1.195a9.625 9.625 0 002.838-.897c.822-.523 1.719-.897 2.69-1.195.299.299.673.15 1.121-.373.747-.299 1.42-.598 2.166-.897 1.345-.448 2.765-.822 4.259-1.195-.523-.074-.972.074-1.569.299 1.195-.672 2.391-.897 3.661-.897.821.074 1.419-.074 1.868-.672.598.598 1.27.897 2.092.971.971.672 1.867 1.42 2.69 2.092 1.045 1.046.897 1.867-.299 2.54a5.007 5.007 0 00-.822.523c-.299.075-.448-.074-.598-.299-.299.224-.598.374-.971.299h-.299c-.224 0-.449.15-.598.299a3.47 3.47 0 00-1.42-.299h-.672c-.449.075-.897.15-1.27.299-.598.299-1.195.598-1.793.972-.598.448-1.195.821-1.868 1.27-.523.299-.897.821-1.045 1.494.149.149.448.149.821 0 .448.448.972.897 1.494 1.27a7.218 7.218 0 012.69 1.719c.374.224.598.598.673.971.299.448.448.971.598 1.345.074.299 0 .523-.299.673-.299.299-.299.598 0 .971-.374-.149-.822-.149-1.27 0h-1.793a3.502 3.502 0 00-2.466 0v-.299c-1.195-.373-2.092 0-2.69 1.27 0 .374.075.673.224.822a3.66 3.66 0 000 1.27c.598.523 1.345.822 2.166.972.897.299 1.719.747 2.466 1.195.598.598 1.27 1.195 1.793 1.868.149.299.374.448.598.598.224.299.374.598.299.897.075.523.299 1.045.673 1.569-.299-.373-.523-.373-.673 0-.224.149-.374.373-.598.523h-.597c-.821.598-1.718.746-2.765.598-.448 0-.821.149-1.195.373-.373.149-.746.224-1.195.299-.448.074-.821.224-1.195.299a6.147 6.147 0 00-.897 1.494l-1.793 2.465c-.821.673-1.419 1.569-1.867 2.466 1.121 2.167 2.54 4.109 4.333 5.678.374-.374.673-.821.821-1.345.224 0 .299-.149.299-.299a.561.561 0 010-.672c0-.224.15-.299.299-.299.075-.224-.074-.374-.299-.299-.074.373-.299.672-.672.971.224-.224.373-.448.373-.672.15-.523.299-.897.598-1.27.15-.448.299-.972.374-1.419-.598-.224-1.12-.598-1.569-1.047-1.045.075-1.27-.299-.598-1.12l2.466-1.569-.299-.299c-.224.224-.448.374-.673.598.673-.672 1.42-1.12 2.167-1.494.821-.149 1.494-.448 2.092-.971.299-.149.598-.299.897-.299-.075-.224.075-.299.299-.299.448.074.821.149 1.195.299.598.224 1.12.523 1.569.897.448.149.971.224 1.494.373 1.12.598 2.092 1.27 2.988 2.092.149.598.373 1.121.672 1.569.224.374.299.747.299 1.27a6.743 6.743 0 00-.971.299c-.374.448-.673.897-.822 1.494-.299.224-.448.523-.598.897-.299.299-.672.598-.971.971-.224.149-.374.373-.598.523v.299c-.075.299-.299.523-.673.598-.075.373-.299.672-.598.897-.075.598-.374 1.045-.821 1.27a5.788 5.788 0 001.419-2.764c-.299.299-.448.598-.598.821-.224.149-.374.374-.448.673-.299.074-.523.149-.672.299.149 0 .299-.15.299-.299-.224-.075-.374.074-.598.299v-.598c-.299.373-.598.448-.972.299.149-.075.224-.224.299-.299-.448.299-.972.598-1.419.971.149-.448 0-.598-.299-.373a5.992 5.992 0 00-.972.971v.299h-.299c.075.149 0 .373-.299.598h.299c-.224 0-.299.074-.299.224.149 0 .149 0 0 0v.299h-.374c.299.523.748.821 1.27 1.045.598.299 1.27.598 1.793.897-.299.299-.299.598 0 .897v.897c.299.15.374.374.299.673-.598.374-1.195.374-1.793 0-.747-.598-1.569-.747-2.466-.673.15 0 .299-.074.374-.299-.448-.299-.821-.448-1.195-.373-.448-.074-.821.074-1.27.373-.598-.523-1.344-.897-2.092-1.195-.746.224-1.419.449-2.017.673-.673.224-1.195.448-1.569.821.224-.299.075-.299-.373 0-.299.075-.299.15 0 .299-.224 0-.448.15-.672.374.224-.149.448-.299.672-.374-.448.15-.448.075 0-.299-.822.449-1.494 1.047-2.092 1.868.299-.448.598-.821.971-1.195-.299.224-.672.374-.971.523 1.046-1.344 2.092-2.69 3.287-3.885.299-.373.598-.672.971-1.045-.074-.374-.299-.598-.672-.897-.672-.374-1.195-.897-1.793-1.494-1.193-1.127-2.314-2.248-3.285-3.592-.598-.673-.897-1.345-.897-2.092 0-.523.224-.897.598-1.27.074.523.224.523.299 0v-.598c.149.075.224.149.224.224v-.224c.299-.523.523-.821.897-.897 0-.299.149-.523.373-.673h1.42c1.419.523 2.465 0 3.063-1.569.897-1.345 1.42-2.764 1.793-4.184.373-.448.299-.672-.224-.672-.373-.224-.746-.449-1.195-.598-.598-.299-1.27-.598-1.867-.972a5.84 5.84 0 00-.897-1.12c.074-.748.373-1.345.897-1.868 1.046-.972 2.018-2.092 2.764-3.437.299-.523.449-1.121.523-1.793a3.052 3.052 0 01-.224-1.644c.075-.224.075-.598 0-.972-.448-.672-1.045-.971-1.793-.971.224-.299.598-.672.897-.971.15-.224.224-.374.224-.523.448 0 .598-.074.373-.299.673-.672 1.345-1.195 2.018-1.569.822-.523 1.42-1.195 1.644-2.092.299-.523.523-1.047.821-1.644.299-.224.523-.523.598-.821-.821.149-1.718.374-2.69.821a8.647 8.647 0 00-2.764 1.868c.672-.224 1.27-.523 1.942-.897-.747.374-1.419.747-1.942 1.27-.448.373-.897.672-1.494.821-.299.598-.672.897-1.195.972l-.897.672c-.448.149-.672.299-.598.598-.299.299-.672.448-1.195.448-.448.897-1.046 1.644-1.793 2.316.074.598-.149.897-.598.972-.299.224-.672.224-1.046 0-.747-.075-1.419-.374-2.017-.972C1.644 35.005.822 33.958 0 32.987c0-1.345.598-2.391 1.644-3.138a31.423 31.423 0 012.913-3.362 94.847 94.847 0 002.765-2.69 32.756 32.756 0 001.643-1.569c.15-.598.523-1.046 1.121-1.27.373-1.121.822-2.242 1.195-3.362 0-1.12.149-2.241.598-3.362.299-.672.373-1.344.373-2.166 0-.598-.074-1.195-.373-1.793.224-.747.149-1.345-.299-1.867-1.121-.299-1.867-.822-2.39-1.793.299-.598.747-1.121 1.27-1.569.224-.448.598-.747 1.121-.821.373-.374.822-.673 1.27-.972.598-.149 1.047-.523 1.42-.897.074-.523.224-.821.672-1.046.449-.074.972-.149 1.494-.224 1.194.224 2.315.673 3.361 1.494zm-3.661 21.442c-.598.448-1.344.747-2.092.897a14.455 14.455 0 013.885-1.494c-.522.224-1.12.448-1.793.597zm2.092 2.166c-.299 0-.598.075-.821.299-.523.075-1.046.224-1.644.374-.224.374-.299.523-.224.523-.224.15-.448.374-.598.598a31.057 31.057 0 012.84-.821c.598 0 1.195-.224 1.718-.673h-.673c.224-.074.449-.224.673-.299h-.374a1.828 1.828 0 01-.897-.001zm-.821 35.189c-.299.299-.598.523-.972.822 0-.15-.149-.15-.299 0 0-.15.15-.299.299-.299-.149 0-.149-.075 0-.224a2.033 2.033 0 00-.672.897c.373-.149.373-.149 0 0-.224.149-.299.299-.224.448.15-.224.374-.523.598-.821 0 .224.15.373.299.373a1.536 1.536 0 01-.299.448c.449-.224.748-.598.972-1.12.223-.076.373-.225.298-.524zm-1.271.523c-.074.448-.299.746-.598.897v.224a3.32 3.32 0 00.598-.821v-.3zm1.271-2.167c-.374.523-.747 1.046-.972 1.644.224-.373.449-.672.673-.971 0-.224.075-.449.299-.673zm-.299 3.064c.075-.15.149-.15.299 0-.224.448-.598.821-.972 1.195a8.036 8.036 0 001.345-1.793 1.756 1.756 0 00-.672.598zm0 .896l.673-.673c-.224.374-.449.673-.673.972.523 0 .598.224.299.672-.299.149-.299.224 0 .299.075-.373.224-.672.523-.971.075-.374.299-.748.673-.972h.224c0 .224-.074.448-.224.673-.149.074-.224.149-.374.299.673-.523.897-.897.598-1.195l.673-.897c-.224.149-.374.149-.374 0-.823.448-1.496.971-2.018 1.793zm2.988-.298c-.149.224-.224.299-.299.299-.448.149-.523.149-.299 0-.448.299-.821.672-1.27.971.075.373.224.672.374.822-.075.299 0 .448.224.373v-.598c.449 0 .822-.299.972-.897.149-.299.374-.523.598-.672.224-.15.374-.374.299-.673-.15.224-.375.299-.599.375zM54.912 6.914a3.74 3.74 0 001.793.672c.672.224 1.27.598 1.793 1.121 1.121.746 2.092 1.569 3.063 2.465 1.195.897 2.391 1.867 3.661 2.839.448.299.897.673 1.195 1.12.075.598.224 1.047.598 1.569.897 1.12 1.12 2.391.673 3.735-.075.598-.374.971-.972 1.121-.523.746-1.046 1.419-1.494 2.241-.523.374-.897.897-1.195 1.494-.374.374-.673.822-.972 1.195-.299.449-.672.748-1.195.897-.373.523-.746 1.121-1.195 1.569a3.168 3.168 0 00-.598 1.494c.224.821.673 1.494 1.494 1.868.822 1.045 1.569 2.316 2.167 3.735.299 1.047.299 2.167 0 3.287-.448-.299-.897-.299-1.345 0a4.888 4.888 0 01-1.719-.299 5.555 5.555 0 01-3.063 1.42c-.448.448-.971.523-1.569.299-.523-.149-1.121-.149-1.793 0a6 6 0 00-3.287.971c-.15-.074-.523-.074-.972 0-.075.299-.224.523-.523.673h.299c-.972.149-1.868.523-2.84.897-.373.075-.897.149-1.419.224a2.65 2.65 0 001.195-.821c-.673.149-1.419.448-2.167.821-.897.374-1.569.972-2.092 1.943-.373.299-.746.373-1.195.299-.672-.075-1.27 0-1.793.299-1.12-.224-1.643.299-1.569 1.494-.149.746-.373 1.569-.523 2.391.075-.15.15-.299.224-.598a16.51 16.51 0 00-1.494 3.063c-.299 1.793.224 3.287 1.494 4.632 1.046 1.494 2.391 2.466 3.959 3.063 1.047 1.195 2.242 2.092 3.661 2.69.598.224 1.195.299 1.718.224.598.374 1.121.673 1.644.972.299.448.746.897 1.195 1.27a6.447 6.447 0 002.391 0c.746.299 1.419.523 2.092.598.746.074 1.494.149 2.166.224.598 0 1.046.074 1.494.299.598.373 1.121.373 1.494 0 .299.373.523.373.672 0 .523.074.972-.075 1.494-.299 1.121-.523 1.719-1.345 1.793-2.391.822.074.972-.299.374-1.121-.374-.971-.673-2.018-.972-3.063.075.523.15.523.299 0 0-.15-.074-.299-.299-.374-.149-.299-.224-.523-.373-.821 0 .299-.074.299-.149 0 .224.074.224-.15 0-.598l-1.345-1.569c-.373-.897-.822-1.718-1.494-2.466.074.748.299 1.047.672.972v.598c.15 0 .15.149 0 .299.224.149.374.149.299 0 .075.224.15.448.299.598.075.149.299.374.598.523.075.374.15.449.299.374v.299c0 .224.075.448.299.673-.149-.224-.149-.299 0-.299v.299c.15.149.224.373.374.598.075.149.149.373.149.523.299 0 .448.075.373.374 0-.299-.074-.299-.373 0h.373c-.299-.449-.598-.822-.897-1.195.075.149.224.149.374 0-.897-.897-1.644-1.793-2.167-2.765 0-.224-.074-.299-.299-.299-.373-.448-.598-.897-.598-1.569a20.196 20.196 0 00-1.569-2.764c.224.598.523.747.897.598A9.944 9.944 0 0157 49.95c.074.299.299.373.598.373-.373-.299-.598-.598-.897-.971a5.396 5.396 0 011.494 2.166c.299.598.747 1.121 1.195 1.569a8.187 8.187 0 00-1.793-3.137l-2.69-3.586c.299.224.598.373.897.523v-.227c.149.299.373.373.598.224 0 .523.224.897.598 1.27-.299 0-.299.074 0 .299-.299.074-.299.224 0 .373.149-.149.149-.224 0-.373h.299c-.074.448.149.746.598.897.224.299.373.448.598.598 0 .299.074.373.373.373.299.299.299.299 0 0a8.55 8.55 0 011.793 1.867c-.373-.897-.821-1.718-1.494-2.465-.746-1.121-1.494-2.092-2.465-2.839-1.345-1.046-2.465-2.316-3.287-3.81a21.484 21.484 0 013.287 2.69.582.582 0 01.299.299c.299.373.523.448.598.299.373.448.747.897 1.27 1.195-.224.074-.224.224 0 .299.299.074.523.224.523.598.373.448.672.821.971 1.27a16.049 16.049 0 012.69 3.586c.598 1.719 1.494 3.213 2.69 4.408 1.345 1.27 2.541 2.69 3.661 4.184.972 1.27 1.644 2.614 1.942 4.184a4.274 4.274 0 000 1.942c-.149.299-.224.598-.299.897-.523.224-.747.673-.672 1.195-.374.374-.673.822-.972 1.195-.149.224-.374.224-.598 0-.299.449-.598.449-.897 0-.821.075-1.569 0-2.466-.224-.523-.149-.971-.299-1.419-.299-.374.075-.673.149-.972.299-.299.523-.672.821-1.195.897-.598.448-1.195.598-1.793.374-.523-.523-1.12-.897-1.867-1.047-.598-.224-1.195-.598-1.793-.897-.822-.149-1.644-.373-2.465-.598-1.42.224-2.541-.149-3.287-1.195-.299-.074-.673-.149-.897-.299-.598.15-1.047 0-1.494-.299-.972-.299-1.868-.672-2.765-.971-.821-.373-1.644-.747-2.466-1.195-.672-.224-1.419-.672-2.092-1.195a5.131 5.131 0 01-2.391-1.644c-.897-.374-1.718-.972-2.465-1.644-.523-.299-.971-.747-1.42-1.27-.746-.374-1.419-.822-1.867-1.494-.299.149-.299.224 0 .224-1.046-.673-1.942-1.569-2.69-2.69-.224-.673-.448-1.27-.672-1.868a3.007 3.007 0 01.672-1.494c.224-1.419.448-2.913.672-4.332.224-1.27.299-2.615.299-4.035-.224-2.539.374-4.781 1.719-6.723.672-.523 1.345-1.047 1.867-1.644.299-.523.673-.746 1.047-.672.598.523 1.045.598 1.344.299.598.448 1.195.448 1.793 0l.598-.598 1.121-1.345c.747-.224 1.345-.747 1.867-1.419a21.904 21.904 0 002.092-2.69 55.684 55.684 0 003.362-6.201c-.374-.074-.673-.299-.972-.598h-.746c-.15-.299-.374-.523-.673-.598-.374.074-.598 0-.673-.299-.448-.074-.971 0-1.419.299-.448-.149-.897-.074-1.195.299.149.224.075.373-.299.299-.224.224-.448.448-.673.598-.299.448-.746.672-1.195.598-.821 0-1.643-.074-2.465-.224-.672-.149-1.345-.299-1.942-.373-.149-.299-.374-.373-.673-.299h-1.27c-.074-.373.074-.672.373-.897.224-.224.449-.523.598-.971.299 0 .299-.075 0-.299a8.84 8.84 0 001.42-2.765c.822-.897 1.644-1.793 2.465-2.765.075-.523.374-.971.897-1.419.15-.673.598-1.195 1.121-1.644.971-1.27 2.018-2.465 3.063-3.66a19.933 19.933 0 013.287-2.466c.224-.149.449-.374.673-.523.374-.075.673-.224.972-.374.746-.224 1.419-.075 2.092.374 1.422.522 2.841.896 4.261 1.195zm1.494 41.912c-.373-.672-.822-1.27-1.195-1.942.149.224.299.448.373.673.15.447.449.821.822 1.269zm2.989 4.856a4.04 4.04 0 01-1.195-1.867c.149.224.373.448.672.598.149.447.298.895.523 1.269zm0-.598c.448.897.897 1.719 1.494 2.466-.523-.821-.822-1.644-1.121-2.466 0 .224.15.374.299.598 0-.448-.224-.598-.672-.598zm3.361 4.931h-.373c.299.224.523.523.672.821-.149 0-.299-.075-.299-.224.299.074.374.224.299.523.15.299.224.374.299.374v-.673c-.299-.223-.448-.522-.598-.821zm.299 1.495c.224.299.224.373 0 .224v.374c.15-.15.224-.299.299-.374v.972c-.074-.224-.074-.299 0-.299-.149.224-.149.373 0 .672v-.672c-.075-.3-.149-.599-.299-.897zM118.711 4.149c.821.972 1.27 2.092 1.345 3.287.523 1.046.523 2.017 0 2.988.149-.374.373-.821.523-1.27-.897 1.047-1.42 2.167-1.494 3.287.074.822.523 1.27 1.494 1.27h1.569c.672-.075 1.345-.224 2.092-.299 1.345.075 2.69-.075 3.959-.299h-1.27c1.644-.224 3.362-.448 5.08-.673 1.345 0 2.615-.149 3.811-.523a19.39 19.39 0 011.344-.598c.523-.374.972-.821 1.42-1.195 1.345.149 2.316.747 3.063 1.793a18.056 18.056 0 012.391 2.391c.449.747.673 1.494.748 2.391-.224 1.046-.897 1.718-2.167 2.017-.821.15-1.569.299-2.391.374a12.7 12.7 0 00-3.362 0c-1.718-.374-3.362-.598-5.155-.598-.897 0-1.793.075-2.69.224a7.065 7.065 0 01-3.063 0c-.822.299-1.644.449-2.466.374h-2.69c-.821-.224-1.569-.149-2.092.299-.299.374-.374.747-.374 1.27.224.299.224.598 0 .821l3.811-.224c1.345 0 2.615-.374 3.811-.972.448-.075.746-.224.971-.598.672.075 1.42.224 2.092.598.672.299 1.42.673 2.092.972.224-.15.448-.224.598-.299a8.593 8.593 0 013.138 2.316c.224.374.523.673.972.972.746.523 1.27 1.195 1.643 2.017.822 1.27.748 2.316-.299 3.287-.746.224-1.494.448-2.316.673a4.064 4.064 0 01-2.466.299c-.074.224 0 .299.374.224-.224.149-.448.299-.747.299v.374c-1.046.224-2.241.373-3.437.299-1.195.299-2.466.598-3.81.897.224-.075.373-.224.448-.299-.299 0-.598.074-.746.299-.075-.299-.15-.299-.224 0-.299-.075-.523-.224-.747-.299-.448.224-.897.373-1.345.598-.598 0-1.121.149-1.569.299-.523 0-1.047.149-1.494.299-.299-.15-.598 0-.748.224-.373.224-.598.523-.598.972-.074.523 0 .897.299 1.27.15-.224.374-.299.673-.373 1.419.074 2.614-.075 3.81-.598.897-.299 1.868-.673 2.69-1.27a4.502 4.502 0 011.42 0c.822.224 1.644.448 2.391.673 1.644.299 3.213.821 4.707 1.569a7.815 7.815 0 011.419.897 10.41 10.41 0 012.017 1.569c.598.523 1.195.822 1.719.972.672-.224 1.27-.523 1.719-.972.672-.373 1.344-.523 2.017-.299.897.374 1.718.748 2.466 1.27a7.203 7.203 0 011.643 1.718c.15.673.523 1.27 1.121 1.868-.373 0-.598.075-.747.299-.149.149-.374.224-.673.224h-2.092c-1.419.374-2.764.299-4.109-.224-.224.224-.523.374-.972.523v.972c.299 0 .374.224.374.598v.821c.149.15.224.224.299.374-.224.075-.523.149-.673.299 0 .374-.074.821-.373 1.195-.224.299-.598.448-.971.598-.374.299-.748.598-1.047.897-.523.673-.897 1.345-1.045 2.092a4.908 4.908 0 01-1.27.897 7.359 7.359 0 00-1.12.897c-.598.673-1.27 1.195-2.018 1.793-.149.149-.373.374-.672.598a3.042 3.042 0 01-1.42.598c-.822.149-1.644.374-2.391.673-.299-.523-.747-.598-1.345-.374-.598.374-.821.299-.821-.299a16.87 16.87 0 01-1.569.673c-.224-.523-.149-1.047.299-1.569-.673-.149-1.27 0-1.718.598-.673.673-1.494 1.046-2.391 1.27 1.045-.598 1.643-1.42 1.793-2.466-.374.149-.598.374-.598.598-.523.448-1.047.821-1.494 1.195 1.27-1.046 1.494-2.092.672-3.287-.224-.149-.448-.299-.672-.299-.299.149-.673.224-1.047.299a3.566 3.566 0 00-.299 1.494c-.299.598-.448 1.195-.373 1.793-.299.673-.299 1.27 0 1.868-.074.672-.149 1.419-.224 2.092v1.419c0 .299.075.598.224.897a3.391 3.391 0 00-.224 1.195v1.12c0 .449.075.897.224 1.27.523 1.046.448 1.942-.224 2.69v.598c-.299.149-.523.374-.746.598l-1.121.897c-.373.598-.971 1.12-1.644 1.494h-.972c-.598 0-1.195-.224-1.793-.598-.598-.673-1.27-1.345-2.017-2.092-.374-.149-.897-.224-1.345-.299-.373-.523-.822-.897-1.42-1.27-.897-.149-1.569-.523-2.017-1.12a2.767 2.767 0 01-1.345-.598 5.604 5.604 0 00-1.345-.972 26.213 26.213 0 01-2.988-2.017c-.972-.374-1.644-.821-2.092-1.494.523.299 1.12.598 1.718.897-.897-.523-1.718-1.046-2.391-1.718-.897-.598-1.569-1.27-2.092-2.167.15.149.374.224.598.299a1.77 1.77 0 011.121.673c.224.074.448.224.598.299 0 .224.149.448.448.598 1.345.672 2.765 1.344 4.034 2.017.149-.075.149-.224 0-.299h.299c.074.374.299.673.747.897.448.598 1.195.972 2.017.972.822.074 1.494.373 2.092.746.449.075.897 0 1.345-.299.598-.224 1.195-.299 1.793-.299.448 0 .746-.149.897-.523.523-.299.672-.673.448-1.195v-4.706c.224-.897.075-1.569-.448-2.167v-.598c-.15-.299-.523-.523-.897-.598-.673-.149-1.27 0-1.793.299h-1.644c-.598 0-1.195.075-1.793.299-.971.149-2.017.224-3.063.299-.822-.075-1.793-.149-2.764-.299-.748 0-.897-.224-.374-.598a.322.322 0 01-.299-.299c.598-.673 1.195-1.419 1.793-2.092.299-.299.673-.598.972-.897.074-.374.299-.598.672-.598.373-.149.747-.075 1.046.299.673.149 1.27.075 1.718-.299h2.988c.748-.075 1.494-.224 2.167-.299.448-.075.821-.224 1.27-.374.523-.373.672-.821.448-1.419v-1.868c-.448-.373-1.045-.373-1.718 0-.075.224-.299.374-.747.299-.299.224-.672.449-1.046.673-.747.299-1.569.448-2.391.598a27.378 27.378 0 01-5.379 1.494c-1.569.374-3.063.821-4.558 1.494-.598.224-1.12.523-1.718.897-.224.299-.598.374-.972.299-.598.149-1.12.224-1.643.299-1.719.374-3.287.374-4.781 0-.822-.224-1.42-.673-1.793-1.195.149-.821.672-1.419 1.419-1.793a3.69 3.69 0 011.345-1.494 3.585 3.585 0 011.719-1.27c.821-.224 1.569-.373 2.391-.299a6.986 6.986 0 002.764-.821 237.93 237.93 0 019.862-2.466c.897-.149 1.793-.299 2.764-.598.897-.074 1.793-.299 2.765-.523.673-.149 1.27-.448 1.718-.897-.821-.299-1.643-.598-2.465-.972-.672.075-1.345.224-2.018.299-.598.374-1.27.598-2.092.673-.299-.149-.523-.075-.672.299a7.378 7.378 0 01-1.345.598c-.747.374-1.494.673-2.316.821-.822.374-1.644.523-2.541.598-.821.224-1.718.449-2.69.673-.299-.075-.672-.224-.971-.299-.373-.224-.672-.299-1.046-.374-.972-.299-1.12-.672-.374-1.12.748-.972 1.719-1.942 2.69-2.765.972-.149 1.943-.149 2.765 0a6.533 6.533 0 002.765-.598c.598-.373 1.27-.523 2.092-.523.821-.224 1.569-.448 2.316-.598a223.005 223.005 0 015.155-1.569v.299c.373-.746.373-1.643 0-2.539-.897.373-1.569.897-2.018 1.643-.074.299-.299.523-.747.598-.523.224-1.046.449-1.644.598-1.195-.074-2.391-.523-3.437-1.195-1.12-.598-2.092-1.27-2.988-2.241-.673-.224-1.12-.523-1.494-.897-.448-.449-.448-.822 0-1.195-.149-.299-.224-.598-.374-.897.15-.15.299-.374.374-.673-.149-.374-.299-.747-.374-1.195a1.746 1.746 0 00-1.27-.523c-.672-.075-1.195-.224-1.719-.598-.149-.972.374-1.719 1.719-2.167.373-.673 1.046-1.195 1.942-1.494.448-.299.972-.448 1.494-.523.747 0 1.569.224 2.316.523.299.374.598.673 1.047.897.672-.374 1.494-.673 2.391-.897 1.27-.374 2.539-.821 3.81-1.12.224-.15.448-.224.598-.374v-2.988c0-.374-.224-.523-.598-.299-.299.149-.673.149-1.046 0-1.046-.075-2.092.075-3.138.299a3.28 3.28 0 01-2.017.673c-.673.149-1.047.074-1.047-.299-1.867.448-3.81.672-5.752.821-1.121 0-2.241.075-3.437.299-.523.075-.972.149-1.419.299-.523.374-1.121.523-1.719.598a29.988 29.988 0 00-3.437 1.793c-.448.224-.897.149-1.345-.224-.822 0-1.569-.075-2.391-.299a2.054 2.054 0 01-.897-.673c-.224-.374-.448-.821-.747-1.195 0-.448-.075-.972-.299-1.419-.075-.523.075-1.047.299-1.569a21.805 21.805 0 012.391-2.092c.673-.598 1.494-1.12 2.391-1.569.598 0 .972.374 1.046.972.373.374.971.523 1.644.299h5.08c2.54-.149 5.08-.448 7.546-.972 1.419-.074 2.764-.149 4.109-.299 1.195-.149 2.316-.373 3.437-.448-.224.149-.598.224-1.046.149.821.075 1.494 0 2.167-.149v-3.96c0-.673-.075-1.27-.374-1.868a5.089 5.089 0 000-2.988c-1.27-.821-1.793-1.942-1.793-3.287a4.057 4.057 0 001.793-.897 12.068 12.068 0 012.017-.897c.075-.224.224-.299.598-.299.224-.224.449-.373.748-.598.598-.149 1.195-.074 1.718.299 2.54.292 4.333 1.488 5.379 3.654zm-13.224 14.942c-.224.224-.598.374-1.045.299-.972.224-2.018.374-3.063.598 1.345-.075 2.69-.224 4.109-.299.598-.075 1.195-.149 1.719-.299.523.075.971-.075 1.42-.299-1.048.15-2.093.15-3.14 0zm.299 9.638c-.672.299-1.045.821-.971 1.494.149.373.224.746.373 1.195-.373.224-.373.373 0 .598.673-.15 1.345-.374 2.018-.598.672-.075 1.345-.299 2.018-.673 0-1.195.074-2.54.299-3.81-1.421.15-2.69.748-3.737 1.794zm.299 18.378c1.42-.074 2.69-.373 3.885-.897-1.27.375-2.54.673-3.885.897zm.748-31.378c.672.075 1.195 0 1.793-.299-.598.299-1.121.374-1.793.299zm3.436 43.108v-2.092c-.299.747-.299 1.419 0 2.092zm0 1.868a13.841 13.841 0 000 3.511h.299c-.299 0-.373-.075-.299-.299.15.149.374.299.598.299-.373-.821-.523-1.569-.299-2.391h-.299v-1.12zm2.39-5.155h-.299c-.149.299-.224.598-.373.897.299.299.448.598.373.972v2.017c-.299 1.345-.074 2.54.673 3.586-.149-.448-.149-.897 0-1.419.075-.598.224-1.195.299-1.868 0 .224-.075.448-.299.673v-.673c-.299-.673-.374-1.345-.374-2.017-.149-.449-.149-.897 0-1.27v-.898c-.149-.224-.149-.598 0-.897-.299.299-.299.598 0 .897zm0-7.471c-.149.747-.074 1.494.374 2.092-.149-.523-.149-1.046 0-1.494-.224-.15-.374-.375-.374-.598zm.673.896c-.299.299-.374.598-.299.897.374 0 .598-.299.598-.897-.075-.448-.15-.448-.299 0zm1.644 7.172c-.598 0-.897.224-1.046.598.149.523.224.972.374 1.494-.299 1.27-.449 2.614-.374 3.885v2.391c-.149.523-.149 1.195 0 1.793.747-.747.972-1.644.673-2.69a4.577 4.577 0 010-2.017c-.15-.598-.15-1.195 0-1.868V57.94c.074-.075.224-.149.373-.224v-1.569zm1.046 1.271c-.149.448-.149.897 0 1.419-.299.448-.374.821-.374 1.27-.149.299-.299.598-.373.897 0 .299.074.448.373.598-.149.373-.224.746-.373 1.12 0 .821.074 1.644.373 2.316.523-.523.598-1.195.374-2.017a4.075 4.075 0 000-2.316c.224-1.047.224-2.018 0-2.988v-.299zm0-.299c.299-.224.523-.523.673-.972.224-.673.224-1.419 0-2.017-.598.822-.823 1.794-.673 2.989zm.374-16.287c.074-.149.224-.373.299-.598v-1.12c-.45.597-.524 1.12-.299 1.718zm.746-13.298c-.149.373-.149.897 0 1.494.15-.299.224-.598.224-.972-.149-.299 0-.598.373-.821-.373-.374-.597-.299-.597.299zm0-2.391c-.074.373 0 .746.224 1.12a1.459 1.459 0 000-1.12h-.224zm7.322 13.672c-.822.299-1.719.523-2.69.598-.449 0-.897-.075-1.195-.299h-1.494c-.748-.149-1.195 0-1.345.598a4.43 4.43 0 00-.373 1.718c1.046-.373 2.092-.448 3.213-.299h.224c.299-.074.523-.149.598-.299h.747c.224.15.448.15.672 0 .374.075.523 0 .673-.299l-.299.299a5.782 5.782 0 012.017-.598c0 .224-.149.299-.448.299.672-.149 1.27-.224 1.867-.299.299.15.523.15.747 0 .149-.373.224-.897.299-1.419-1.047-.374-2.093-.374-3.213 0zm-3.661 6.574c-.972.224-1.868.448-2.765.598 0 .224-.074.299-.299.224v.673c.075.299-.074.598-.373.821 0 1.42.822 1.719 2.391.972 1.046-.149 1.942-.448 2.764-.972 1.644.15 2.69-.523 3.063-2.017-.747 0-1.494-.075-2.092-.299h-2.689zm2.69-21.142a.563.563 0 01-.673 0c-.523-.224-.821-.15-1.045.224-.299-.224-.598-.299-.972-.224-.299.149-.523.149-.747 0-.373.074-.672.149-.971.224-.449.224-.673.523-.748.972-.149.523-.149 1.12 0 1.793v.821c-.224.523-.373.972-.299 1.494a42.197 42.197 0 006.201-5.304h-.746zm8.516-7.845a3.165 3.165 0 00-.897.299h-1.793c-1.195.374-2.465.448-3.735.299-.821.075-1.644.149-2.391.299H121.4c.299 0 .448-.075.374-.299-.224 0-.374.075-.374.299a3.805 3.805 0 01-1.644.374c-.074.224.074.299.299.299v-.299h2.764c.374-.299.822-.449 1.42-.374h.971c.523.149.673.149.374 0h1.793c0-.224.075-.299.299-.299.149.299.224.299.224 0 .673.149 1.345.149 2.167 0h1.345c.224.075.373-.075.299-.299a1.28 1.28 0 001.046 0c-.149.299-.299.299-.374 0 .598.224 1.047.075 1.345-.299-.523.075-1.047-.075-1.345-.299-.374.149-.523.224-.374.299zm-4.333-2.69h-2.913c-1.569.224-3.287.374-5.006.598.299 0 .523.075.822.374v-.374h1.569a.943.943 0 00.672-.299h.374c.149.149.448.149.747 0 .448 0 .822-.075 1.27-.299h1.719c1.121-.075 2.241-.224 3.512-.299-1.048-.149-1.944-.075-2.766.299zm-4.856 1.419h.374c.374 0 .747-.074 1.046-.149-.971 0-1.867.074-2.839.149.374.224.374.299 0 .299h.747c-.747.299-1.569.374-2.391.299 1.569.15 3.213 0 4.707-.598 1.718.075 3.362 0 4.856-.149-2.166.001-4.333.075-6.5.149zm-2.764.972a5.35 5.35 0 002.465-.374c.822-.074 1.569-.149 2.242-.299-1.494.225-3.139.449-4.707.673zm.747-2.391c.673-.224 1.345-.374 2.017-.299-.598.075-1.344.224-2.017.299zm3.138.299c-.074.299-.299.374-.747.299h1.046c.074-.299 0-.374-.299-.299zm-.448-.598c.673-.299 1.345-.374 2.092-.299-.748.076-1.42.224-2.092.299zm4.706-.298c.748-.075 1.494-.224 2.242-.374-.748.15-1.494.299-2.242.374zm2.541 1.569c.821 0 1.569-.075 2.391-.374-.823.075-1.645.224-2.391.374zm.373-1.271c.971-.075 1.942-.224 2.914-.299-.972-.074-1.943.076-2.914.299zM180.279 23.024c.213.266.425.584.638.904.319.319.638.744.851 1.223v1.382c-.053.213-.16.213-.266 0-.16.266-.319.532-.372.851v.638c-.053.213-.106.478-.213.691v1.063a81.235 81.235 0 00-1.116 2.18 6.455 6.455 0 01-.851.851c-.425.265-.744.584-1.116.85a4.637 4.637 0 00-.851.904l-.638.478c-.159.213-.107.426.213.585.585.691 1.223 1.382 1.754 2.073l.638 1.436c.319.531.638 1.009.851 1.541.531.957.797 1.967.85 3.03-.053.425-.159.797-.372 1.116 0 .425-.16.798-.478 1.063-.691.106-1.117.532-1.276 1.276a49.023 49.023 0 01-.691 2.658 7.548 7.548 0 01-.213 1.063v1.542c0 .372-.053.744-.16 1.063a.877.877 0 01-.266.638c.266.106.266.266 0 .478.053.319-.053.691-.213 1.01-.106.584-.213 1.116-.425 1.648.107 0 .107.053 0 .159-.213.213-.266.426-.213.691a6.387 6.387 0 00-.425 1.063c-.266.798-.532 1.542-.851 2.18h.266c-.319.053-.372.213-.266.478-.266.372-.532.798-.85 1.223-.372.319-.478.691-.426 1.117h-.266c-.159.106-.213.265-.265.425 0-.16.053-.266.265-.213-.213.159-.372.425-.372.638-.425-.107-.691.107-.85.638l-.213.213c-.106.107-.213.16-.266.213-.053-.16-.213-.16-.478 0-.265.266-.638.478-1.009.638-.266.213-.585.319-.904.213-.266.213-.531.266-.85.266-.372.478-.798.851-1.329 1.116a.854.854 0 00-.478.16c-.106.213-.213.266-.372.266a1.251 1.251 0 01-.478-.426c-.478-.372-.744-.904-.851-1.595a1.11 1.11 0 01-.425-.851 1.83 1.83 0 01-.638-.638c-.053-.053-.16-.106-.266-.213.318 0 .372-.107.266-.425.053-.266.106-.585.159-.904.107-.425.213-.85.213-1.275.107-.426.159-.904.266-1.329.053-.372.159-.691.266-1.063.053-.426.106-.851.159-1.329.053-.691.16-1.435.213-2.18.107-.585.16-1.169.213-1.701h.213v-.213a4.958 4.958 0 01-.213.691c.106.372.159.798.213 1.223a34.93 34.93 0 01-.213 2.445c0 .319.106.585.213.904 0 .372.106.744.213 1.063-.053.532.053 1.01.213 1.489.266.159.478.159.638 0 .425.213.798.425 1.117.638a.645.645 0 00.85 0 10.264 10.264 0 002.392-4.093c.213-.532.426-1.116.691-1.701a8.707 8.707 0 01.638-2.445 7.62 7.62 0 01.425-1.967c.213-.691.319-1.435.372-2.18a9.893 9.893 0 00.744-3.721c.213-.957.319-1.967.426-2.976.159-1.383.106-2.658-.213-3.934h-.426a3.62 3.62 0 00-.638.638c-.213.478-.478.851-.85 1.117-.266.318-.479.691-.692 1.063a30.497 30.497 0 00-1.169 1.595c.107-.213.159-.372.266-.478-.425.904-1.01 1.648-1.754 2.339a43.251 43.251 0 00-1.435 2.605c-.425.904-.85 1.808-1.382 2.605-.266.691-.532 1.382-.851 1.966.213-.531.426-1.116.638-1.701-.798.744-1.117 1.595-1.01 2.605v.425c-.266.159-.266.319 0 .478 0 .478-.159 1.01-.532 1.489 0 .319-.159.638-.372.904-.16.372-.426.532-.851.532-.319.319-.638.425-.957.266-.159-.107-.372-.159-.638-.266-.266.053-.478 0-.585-.107-.904-.318-1.595-.85-2.18-1.595-.691-.851-1.063-1.754-1.169-2.871.159-.372.372-.691.691-.957.372-.532.691-1.063.904-1.595.266-1.116.691-2.18 1.223-3.242-.213-.107-.425-.107-.584 0h-1.754c-.319.213-.532.159-.638-.213-.479-.16-.958-.372-1.329-.692-.159-.159-.372-.213-.638-.213-.319 0-.532-.106-.638-.425-.266-.585-.106-1.063.372-1.489.425-.532.797-1.116 1.169-1.754a13.627 13.627 0 012.551-2.392c.478-.213.851-.584 1.117-1.063.372-.478.744-.958 1.276-1.383.904-.957 1.86-1.914 2.817-2.924.478-.478 1.01-.85 1.542-1.169a3.387 3.387 0 011.541-.691 2.25 2.25 0 001.063-.798 4.08 4.08 0 001.595-1.807c.585-1.223 1.276-2.393 2.18-3.456.213-.638.532-1.117 1.063-1.542.159-.266.372-.478.638-.691.213-.213.426-.532.638-.798a3.667 3.667 0 011.489-1.116c.425-.319.957-.478 1.541-.478.213-.107.372-.266.585-.372.213.053.372-.053.478-.213.266.107.585.107.85 0 .424.16.69.426.903.851zm-13.025 25.198c-.053.159-.159.319-.213.478-.053.213-.159.425-.266.638-.106.478-.318.85-.638 1.169v.372c-.159 0-.213.053-.213.213-.16.213-.319.478-.425.691.106-.372.318-.691.638-.904.319-.372.638-.798.904-1.329a47.828 47.828 0 001.542-2.818c-.213 0-.372.053-.478.213-.319.427-.638.852-.851 1.277zm20.84-9.994c1.009.691 1.966 1.435 2.764 2.18a52.216 52.216 0 012.233 2.871c.372.479.638 1.01.904 1.542 0 .478.213.904.638 1.276-.16.106-.16.106 0 0 .159.532.478 1.063.85 1.542.266.638.532 1.275.904 1.914-.106 1.223-.531 2.339-1.329 3.296h-1.967c-.372.159-.744.107-1.116-.159-.798.106-1.489-.053-2.18-.478a3.662 3.662 0 01-.904-.904c-.159 0-.372-.106-.638-.213a2.997 2.997 0 00-.585-.584c-.213.106-.266 0-.213-.266-.266-.16-.584-.266-.904-.425h.425c-.159-.053-.319-.107-.425-.266.159 0 .213-.053.213-.213-.213-.16-.425-.319-.691-.426-.107-.053-.107-.106 0-.213-.319 0-.585-.053-.798-.213h-1.063c.053-.213.16-.319.372-.425.319-.213.532-.532.691-.904a77.54 77.54 0 001.063-1.861c.584-.744.584-1.382 0-2.02-.372-.425-.744-.85-1.063-1.275-.106-.319-.213-.478-.425-.638-.372-.266-.744-.531-1.169-.691-.266-.159-.585-.318-.798-.425-.851-.213-1.542-.638-1.967-1.329.213-.266.532-.478.851-.691.265-.106.531-.266.904-.372.266-.319.638-.425 1.01-.425.318-.107.531-.213.638-.426a6.391 6.391 0 013.775 1.221zm3.242-7.123c.638.106 1.063.478 1.276 1.116.319.532.478 1.116.478 1.701-.107.478-.372.957-.638 1.382h-.638c-.372.16-.691.16-.957 0v.107c-.372 0-.744-.213-1.063-.585-.426-.159-.798-.478-1.063-.904a3.07 3.07 0 00-1.063-1.116c-.372-.107-.744-.213-1.116-.372a.934.934 0 01-.478-.691c.053-.319.213-.532.478-.638.159-.213.425-.319.691-.426.213-.053.372-.213.425-.478a2.842 2.842 0 001.967-.425c.532.424 1.117.85 1.701 1.329zm1.967-6.54c.478.16.851.478 1.063.798a4.52 4.52 0 011.541 2.286c.266.213.372.478.478.85-.213.107-.318.319-.265.585.106.425-.053.638-.426.691-.266-.053-.425.107-.425.425a1.597 1.597 0 00-.213-.425 1.597 1.597 0 00-.213.425c-.107-.266-.372-.372-.691-.425-.053.053-.107.159-.16.213-.159.053-.372-.053-.532-.213h-.584v-.425c0-.372-.266-.585-.638-.638-.425-.266-.904-.478-1.382-.691-.319.053-.691-.053-1.063-.213-.213-.266-.532-.478-.904-.638-.213-.107-.372-.372-.372-.638-.053-.318 0-.425.213-.266.159-.478.478-.85.904-1.116a2.732 2.732 0 011.223-.798c.372-.106.744-.159 1.117-.213.425.161.904.32 1.329.426zM253.097 4.224a35.143 35.143 0 002.913 2.838c.449.449.897.822 1.345 1.195.373.598.672 1.27.897 1.868.074.972.448 1.868 1.045 2.765a43.284 43.284 0 01-1.643 3.735c.074.374 0 .673-.299.972.074.299-.075.598-.374.897-.224.598-.448 1.195-.598 1.868-.673 1.27-1.046 2.614-1.046 4.034-.074.748-.224 1.494-.373 2.167v1.868c-.15 1.494-.374 2.913-.598 4.332-.224 1.195-.299 2.391-.299 3.661.224 1.345.448 2.69.598 3.96.224.672.373 1.27.299 1.942.448.748.672 1.42.746 2.167-.074.523-.224 1.046-.373 1.644-.373.598-.822.971-1.569 1.121-1.195.821-2.541 1.419-3.96 1.867a18.72 18.72 0 01-1.27.598c-.149.448-.523.598-.971.373v-.672c-.299.074-.373-.074-.373-.299-.15-.299-.299-.299-.523 0-.822-.074-1.644.074-2.391.299-1.27.448-2.316 1.046-3.213 1.867a46.23 46.23 0 015.604 3.811c.822.747 1.121 1.644.897 2.764 0 .598-.074 1.195-.373 1.793-.299.523-.523 1.047-.523 1.644 1.27 1.942 3.362 2.69 6.126 2.092.972-.075 2.017-.299 2.913-.673.523 0 .972-.149 1.27-.598.673-.448 1.27-.972 1.942-1.494-.224.149-.299.149-.373 0 .373.075.746 0 1.12-.299.224-.149.299-.374.299-.673v-4.557c-.075-.598 0-1.046.224-1.569-.149.523-.149.971 0 1.569-.224-.074-.299 0-.224.299a2.82 2.82 0 010 1.121 3.68 3.68 0 00.224-.523v-1.569c-.074-.673.075-1.27.374-1.868v.972c.374-.449.374-.897 0-1.27-.149-.374-.149-.821 0-1.27-.149.15-.149.374 0 .598-.448-.373-.523-.149-.374.673 0 .149-.074.299-.224.299l.224-1.569a.956.956 0 010-.897c-.149 0-.149-.149 0-.373v.373a2.81 2.81 0 010-1.569c-.224-.149-.224-.224 0-.299a33.225 33.225 0 00-.224-1.195v-1.27l-.299-.299a.582.582 0 01.299-.299c-.299-.224-.374-.598-.299-1.047.149.075.299.15.299.374a.563.563 0 000-.673c-.224 0-.299.15-.299.299v-.299c.149-.149.149-.224 0-.299.224 0 .299-.074.299-.299 0-.373-.075-.672-.299-.897.149-.299.299-.299.299 0-.075-.672-.149-1.27-.299-1.942v-1.42c-.149-.373-.224-.672-.374-.971.299-.224.374-.523.374-.972a1.447 1.447 0 01-.374.673v-.972c.15 0 .15.075 0 .299-.149-.374-.149-.598 0-.747v-.672c-.373.074-.373.224 0 .299-.299 0-.448-.075-.373-.299.224.074.224 0 0-.374-.149-.075-.299-.299-.373-.598h.373c0-.224-.149-.374-.373-.374V33.06c-.15-.224-.224-.448-.299-.821.074.224.224.224.299 0h-.299c.074-.598-.075-1.12-.299-1.644-.299-1.345-.748-2.69-1.27-4.034.598.523 1.046 1.12 1.27 1.868.224.598.373 1.195.598 1.867.746 1.121 1.344 2.241 1.643 3.437.598.598.972 1.345 1.047 2.167.074.448.299.971.598 1.419.149 1.644.448 3.212 1.045 4.706.224.673.374 1.345.299 2.092.15.897.224 1.719.299 2.541-.149 1.27-.074 2.465.299 3.735.374.673.748 1.42 1.121 2.167-.074.972.224 1.644.897 2.167a41.221 41.221 0 012.241 3.959 16.887 16.887 0 011.569 4.333c.224.673.224 1.345 0 1.868 0 .224-.15.373-.224.523-.299.149-.448.374-.373.673-.822 1.195-1.868 2.166-3.213 2.764-.822.224-1.569.672-2.316 1.345-.373.224-.821.299-1.27.299-.672-.075-1.121.224-1.27.897-.449.523-.972.821-1.644.972a2.076 2.076 0 01-1.344 0c-.075-.15-.299-.15-.598 0-.897.224-1.793.074-2.69-.299-.224-.075-.449-.15-.598-.299h-1.27a4.144 4.144 0 00-2.54.598c-.448-.075-.747-.224-1.046-.299-.374.149-.673.149-1.12 0 0 .149-.15.149-.299 0 .074-.449.149-.822.299-1.195-.299.149-.598.299-.897.523h-.972c-.747-.299-1.569-.673-2.241-1.195-.448 0-.897-.075-1.345-.299-.299-.523-.673-.897-1.27-1.046-.149-.149-.373-.373-.672-.523a5.48 5.48 0 00-2.018-1.27c-1.045-.598-1.569-1.42-1.569-2.391-1.345-.149-2.018-.822-2.166-1.942.224-.374.448-.821.672-1.195.149-.598.224-1.195.299-1.868a20.906 20.906 0 001.195-3.66c-.448-.074-.822-.224-1.195-.373-.747.299-1.27.672-1.644 1.27-.972.672-1.942 1.42-2.913 2.092.299-.074.299-.149 0-.299-.15.149-.299.224-.374.299-.523.523-1.046.971-1.644 1.345-.672.897-1.569 1.569-2.54 2.167-1.12.149-2.092.672-2.988 1.494a8.736 8.736 0 01-2.54 1.793 14.156 14.156 0 004.258-3.287c-.373.373-.821.523-1.344.523-.374.374-.673.673-1.047.972-.448.299-.821.672-1.195.897-.299.074-.448.149-.672.224-.299.374-.672.598-1.046.673-.598.448-1.195.897-1.868 1.27-.672 0-1.27.224-1.718.672a4.904 4.904 0 011.718-.971 1.866 1.866 0 01-1.045.299c-.972.299-1.943.672-2.914.971 0 0 .149-.074.373-.299a14.47 14.47 0 01-1.643.598h-.374c-.224.15-.448.374-.598.523-.523.598-1.195.971-2.017 1.046-.897.224-1.793.523-2.615.972-.747.149-1.494.299-2.241.523v-.299c.075-.075.224-.149.299-.224h-1.345c.149.149.373.224.672.224-.746.075-.897.149-.672.299-.373 0-.672.224-.822.673-.299-1.494.374-2.765 1.868-3.736.448-.897 1.12-1.643 1.942-2.241.598-.449 1.195-.897 1.942-1.195-1.195 1.045-1.345 1.718-.299 2.166.448-.224.897-.523 1.27-.971-.15.074-.224.224-.299.299.373-.374.897-.673 1.344-.972.15-.523.673-.897 1.569-1.046a123.552 123.552 0 014.558-4.333 64.215 64.215 0 002.241-2.167c1.27-.971 2.391-2.166 3.213-3.436 2.092-2.316 4.333-4.483 6.574-6.5-.299.074-.598.224-.897.299-.448-.149-.747-.149-1.046 0-.075.299-.224.598-.299.897-.448.224-.821.149-1.046-.299-.822.074-1.569.523-2.241 1.27a3.919 3.919 0 00-1.046.897c-.224.374-.523.673-.822.972 0 .224-.074.299-.299.299-.523 0-.897.224-1.12.598-.299.149-.598.299-.972.299.15.374 0 .598-.224.673v-.299c-.448-.075-.747.074-.972.299-.373.448-.897.821-1.419 1.27-.972.299-1.569.897-1.942 1.793-.299.448-.598.822-.897 1.195 0 .523-.299 1.121-.747 1.569-.598.673-1.345 1.195-2.167 1.644-.373.299-.821.448-1.344.523-.449.299-.822.374-1.27.299-.374.149-.747.149-1.046 0-.149-.075-.373-.149-.523-.299-.448-.149-.746-.448-.746-.821-.523-.523-.972-1.047-1.345-1.644-.299-.821.075-1.494 1.047-1.793.299-.821.897-1.419 1.569-1.942.149-.523.598-.972 1.345-1.195a7.544 7.544 0 002.839-1.27c1.195-.821 2.391-1.569 3.586-2.167 1.121-.523 2.166-.971 3.287-1.569.747-.448 1.494-.747 2.316-.897-1.868-.971-3.362-2.316-4.483-4.034-.748-2.54-1.195-5.155-1.42-7.77-.299-2.466-.523-4.931-.598-7.396.149-1.047.299-2.018.373-3.063.224-1.195.299-2.466.224-3.735v.971c-.224 0-.299-.074-.224-.299v.972c0-1.12.15-2.167.523-3.138-.224.224-.224.448 0 .598v-.897a31.087 31.087 0 011.121-6.5c.971-2.241 2.465-3.959 4.483-5.379.074.748.224 1.494.373 2.242-.074.746-.299 1.419-.747 2.166-.224 1.644-.299 3.287-.299 4.931-.299 3.362-.598 6.65-.897 9.937.224-.15.448-.374.598-.598-.523 2.017-.747 4.109-.598 6.201.598-.448 1.12-.972 1.569-1.494.746-.972 1.569-1.942 2.241-2.913.897-.822 1.644-1.793 2.391-2.765.15-.448.299-.897.523-1.27.598-.672.598-1.27 0-1.793a34.338 34.338 0 01-3.138-.897c-1.12-.373-1.644-1.12-1.644-2.241.971-.748 2.018-1.345 3.213-1.868.448-.075.746-.299 1.045-.598 0-.821.224-1.12.822-.972-.373.075-.448.15-.299.374.448-.149.822-.299 1.046-.673a2.426 2.426 0 001.345-.598c.448-.224.971-.299 1.494-.299.373.449.897.523 1.42.299.224.523.746.972 1.569 1.27.373.374.822.598 1.345.598.299.523.747.897 1.345 1.195.224.448.523.747.822.972.224.448.598.897 1.045 1.27.822.672 1.121 1.494.897 2.54.15 1.046-.149 1.942-.897 2.69a7.519 7.519 0 01-2.539.673c-1.195-.224-2.316-.523-3.287-.972a4.903 4.903 0 00-2.84-.598c-1.12.149-1.942.673-2.465 1.569-.598.897-.672 1.718-.299 2.465 1.046-.224 2.018-.373 2.988-.598 1.046-.149 2.018.074 2.988.598.971.598 1.942 1.195 2.914 1.867.224.374.598.673.971.897.373.374.598.822.822 1.27.373.448.598.972.746 1.494 0 .598.224 1.046.673 1.494a5.176 5.176 0 01-.374.972c0 .299-.149.299-.299 0h-.373c-.224 0-.373-.075-.373-.374-.299.523-.598 1.046-.822 1.644-.074-.448-.299-.523-.747-.299a.362.362 0 01-.523 0 2.056 2.056 0 01-1.719.598 2.97 2.97 0 00-1.569.672c-.673 0-1.195.15-1.719.449-1.345 1.195-2.69 2.465-3.885 3.735-.299.374-.598.673-.897 1.047.149.598.448.821.897.598.373-.075.897-.15 1.345-.299h.299c.149-.15.299-.224.374-.299 1.12-.224 2.166-.523 3.212-1.047 1.046-.149 2.017-.373 2.988-.598a47.157 47.157 0 004.184-2.465c-.448-.074-.673-.224-.673-.672.299-.673.822-1.121 1.569-1.42 1.195-.747 2.167-1.644 2.913-2.69.523-.971.523-1.942 0-2.914.075-1.12 0-2.241-.299-3.362v.299c.075-1.27 0-2.465-.299-3.735.075-1.12.299-2.092.598-3.063v-4.706c0-.598.075-1.27.374-1.868 0-.672.075-1.27.299-1.867v-1.494c-.075-.598.075-1.27.374-1.867v-.897c-.523 0-.897-.15-1.345-.374-.299-.523-.746-.821-1.344-.972-.523 0-1.047.075-1.644.374-.821-.897-1.793-1.046-2.764-.374-.373.075-.747 0-.971-.299-.449.075-.897.15-1.42.299-.598.673-1.345 1.195-2.166 1.644-.523-.374-1.121-.15-1.719.598-.299.672-.822 1.27-1.569 1.569.074-.299.299-.523.746-.672-1.718.598-2.988 1.494-3.959 2.764-1.121 1.345-2.391 2.391-3.959 3.138.523-.972 1.12-1.793 1.867-2.466.897-1.045 1.867-2.017 2.988-2.764 1.569-1.569 3.287-3.063 5.23-4.408 1.046-.523 1.942-1.195 2.54-2.092a23.306 23.306 0 013.959-2.241c.15-.224.374-.299.673-.299.149 0 .224-.075.224-.224a1.48 1.48 0 011.047-1.046c.523 0 .897-.149 1.27-.523.672-.15.897-.523.672-.972.449.075.822-.149.972-.673-.299.075-.673.224-.972.299.972-.672 2.092-.746 3.213-.299 3.068.589 5.908 1.71 8.522 3.428zm-41.389 62.831c-.299.299-.448.299-.523 0-.971.149-1.793.598-2.316 1.27.374.15.673.15.972 0 .523-.299 1.045-.448 1.569-.598.598-.299 1.121-.523 1.719-.672h-1.421zm3.063-33.694c-.074.897.15 1.719.523 2.541-.074.746.074 1.569.448 2.391-.374-.822-.523-1.644-.448-2.391-.149-.897-.299-1.719-.523-2.541zm4.781-6.799c.15-.523.374-.897.673-1.27v.374c.075.522-.149.821-.673.896zm0 8.069c.449 1.644.748 3.287.972 5.005.448.523.821 1.27 1.12 2.018.748.448 1.121 1.046 1.121 1.867.448.598.897.972 1.42 1.27.523-.673.971-1.419 1.344-2.092 1.047-1.419 1.793-2.839 2.242-4.408-.523.074-1.121.149-1.719.373-.672-.074-1.42-.224-2.241-.373a11.916 11.916 0 01-2.167-1.27c-.598-.374-.971-.897-1.12-1.419a5.992 5.992 0 00-.972-.971zm13.374 9.189c.448-.149.897-.373 1.345-.598-.299.449-.748.598-1.345.598zm27.045-6.798a9.548 9.548 0 000 2.913v2.391c0 .449.075.598.224.374a2.08 2.08 0 010-1.345 1.659 1.659 0 01-.224-1.195v.224c0-.15.075-.374.224-.449v-.672c.075.299 0 .523-.224.672 0-.224.075-.299.224-.299h-.224a4.042 4.042 0 010-1.344v-1.27zm.597 3.362c-.149.523-.149 1.045 0 1.643.299-.074.374-.149.374-.373-.299-.374-.374-.822-.374-1.27zm.374-1.42a23.34 23.34 0 00.897 4.557v-1.867c-.374-.299-.523-.672-.299-1.27.149.373.149.299 0-.224-.075.149-.224.224-.299.224v-.748c-.075.224.074.299.299.299a7.761 7.761 0 01-.299-1.27c-.075.225-.15.299-.299.299zM306.004 27.967c.478-.213.904-.159 1.329.16.584.053 1.116.266 1.488.691 1.01.532 2.02.957 3.084 1.276.425.213.798.478 1.116.85.372.372.851.691 1.435.798 1.117.478 1.967 1.223 2.658 2.126.798.372 1.329.957 1.701 1.754.744.691 1.329 1.489 1.808 2.339.319.904.584 1.754.798 2.605.106.584.053 1.169-.213 1.701-.053.213-.213.425-.372.584-.213.053-.319.16-.213.266-.159.851-.532 1.542-1.116 2.074-.532.584-1.063 1.063-1.702 1.382a3.668 3.668 0 00-.904.532c-.213.318-.478.638-.638.904-.478.638-1.117 1.063-2.02 1.223a13.87 13.87 0 00-1.914 1.329c-.691.425-1.329.957-1.914 1.488-.585.638-1.276 1.223-2.02 1.649a9.81 9.81 0 01-2.551 1.329c-.691.532-1.435 1.063-2.233 1.489-.691.372-1.329.744-1.914 1.223-.213.213-.425.478-.638.691-.266.107-.584.213-.904.372-.691.531-1.382.957-2.073 1.329-1.383.798-2.711 1.595-4.094 2.339a15.46 15.46 0 01-1.966 1.276 5 5 0 00-1.17.638c-.213.266-.425.425-.638.425a5.284 5.284 0 00-1.542.638 3.66 3.66 0 01-.425.16 3.478 3.478 0 01-.798.265c.585-.531 1.329-.85 2.18-1.063.692-.372 1.329-.904 1.967-1.542-.584.266-1.063.425-1.541.638-.532.425-1.117.691-1.808.904-.584.319-1.223.532-1.967.798-.425.425-.904.638-1.435.744.904-.692 1.86-1.276 2.818-1.808l.797-.798a1.29 1.29 0 00.744-.478c.372-.159.691-.425 1.01-.798h.266c.106 0 .106-.106 0-.213a20.129 20.129 0 001.967-1.754c-.266-.053-.213-.107.159-.16v-.212c.266 0 .372-.106.266-.213.478-.213.798-.585 1.116-1.116.107-.16.213-.266.372-.372.159-.106.319-.266.478-.478.319-.159.532-.478.638-.798.16 0 .213-.106.213-.213.053.107.106.053.213-.213.266-.159.478-.425.638-.691.478-.425.904-.851 1.276-1.276.106-.213.318-.425.638-.584.159 0 .319-.16.425-.478.266-.266.532-.532.851-.744-.213.106-.425.159-.638.213.213-.372.425-.638.638-.904.372-.372.744-.691 1.116-1.063.691-.798 1.276-1.648 1.701-2.552.16 0 .266.053.266.266 1.276-1.116 2.392-2.339 3.19-3.721.532-.426.851-1.01.904-1.649a4.885 4.885 0 011.329-2.392 8.205 8.205 0 011.276-1.435c.318-.691.584-1.382.691-2.126.106-.744-.107-1.435-.478-2.126a3.995 3.995 0 00-1.914-1.17c-.638-.159-1.223-.372-1.808-.797-.213-.053-.478-.107-.744-.213-.532-.107-.957-.266-1.382-.426h-1.754a9.91 9.91 0 00-2.126.213c-.691 0-1.329.053-1.914.213a4.99 4.99 0 01-1.967.584l-1.276 1.117a10.144 10.144 0 00-1.382 1.701c.638-.266 1.116-.692 1.541-1.223-.318.266-.638.638-.797 1.063-.532.266-.904.585-1.117 1.063h.372a2.055 2.055 0 00-.585 1.435c.266.266.319.691.213 1.329-.266.425-.478.85-.638 1.329a1.845 1.845 0 00-.638 1.01 2.92 2.92 0 00-.957.85 2.37 2.37 0 00-.797.638 1.998 1.998 0 00-.851 1.01 2.69 2.69 0 00-.957.478c-.319.106-.584.318-.798.638-.159-.159-.213-.053-.213.266a1.46 1.46 0 00-.957.532 2.504 2.504 0 00-.638.478h-.585c-.691.213-1.329.372-1.967.425h-.85c-.372.159-.744.213-1.169.213h-3.189a8.29 8.29 0 01-1.489-.319c-.585-.106-.851-.478-.904-.957-.426-.478-.372-1.009.213-1.489.106-.213.159-.425.213-.638a8.2 8.2 0 01.425-1.01c1.063-1.382 2.233-2.711 3.509-3.881 1.223-1.01 2.551-1.914 3.881-2.817 1.489-1.169 3.083-2.233 4.731-3.243.744-.372 1.489-.798 2.18-1.276s1.435-.904 2.233-1.223a34.038 34.038 0 014.359-1.754 34.603 34.603 0 002.286-.426c.691-.106 1.382-.213 1.967-.372a7.548 7.548 0 011.063-.213c.478-.16.904-.319 1.329-.478a7.282 7.282 0 012.127-.158zm-6.91 4.891h.425c-.319.16-.691.213-1.063.213-.478.213-.957.372-1.489.426.478-.16.904-.319 1.276-.426.319 0 .585-.106.851-.213zM355.068 22.811c.159.266.319.584.585.904.372.319.638.744.85 1.223v1.382c-.053.213-.107.213-.213 0-.159.266-.319.532-.372.851v.584a3.065 3.065 0 01-.265.744v1.063a28.678 28.678 0 01-1.117 2.18 6.44 6.44 0 01-.85.85c-.372.266-.744.585-1.117.851-.318.266-.638.585-.85.904-.213.16-.478.319-.691.478-.16.213-.107.425.265.585.585.638 1.17 1.329 1.701 2.02.213.478.426.957.692 1.488.318.478.638 1.01.85 1.489.532 1.01.798 1.967.851 3.03-.053.425-.16.798-.319 1.116 0 .425-.159.798-.532 1.063-.691.106-1.116.532-1.276 1.276a49.023 49.023 0 01-.691 2.658c-.053.372-.106.691-.159 1.01v1.595c-.107.372-.159.744-.266 1.116a.855.855 0 01-.266.585c.266.107.266.266 0 .425.053.372 0 .744-.159 1.117-.107.531-.213 1.063-.426 1.541.107 0 .107.053 0 .213-.213.16-.318.372-.265.638a6.32 6.32 0 00-.426 1.063 8.951 8.951 0 01-.904 2.18h.266c-.266.053-.319.213-.266.478-.213.426-.532.851-.85 1.276a1.157 1.157 0 00-.426 1.063h-.213a1.03 1.03 0 00-.266.478c0-.213.053-.319.266-.266-.266.213-.425.425-.478.638-.319-.106-.585.107-.798.638l-.213.213c-.106.106-.213.159-.266.213-.053-.159-.213-.159-.478 0a6.738 6.738 0 01-1.01.691c-.265.213-.584.266-.957.213-.266.16-.531.213-.904.213a3.253 3.253 0 01-1.276 1.117 2.454 2.454 0 00-.478.159c-.106.213-.213.266-.425.266-.159-.107-.372-.266-.478-.425-.478-.372-.744-.904-.85-1.542-.266-.266-.426-.532-.426-.904a1.838 1.838 0 01-.638-.638c-.107-.053-.159-.106-.266-.213.319 0 .372-.106.266-.372 0-.319.053-.638.159-.957.107-.372.213-.798.266-1.169.107-.532.16-.957.213-1.383.053-.318.107-.691.213-1.063.053-.426.16-.851.213-1.329.053-.691.159-1.435.265-2.18.053-.585.16-1.169.213-1.701h.213v-.266c-.107.213-.16.478-.213.744.053.372.106.798.213 1.223-.107.798-.16 1.595-.213 2.392 0 .319.106.638.213.904 0 .372.053.744.159 1.063-.053.532.053 1.063.266 1.595.266.053.478.053.638 0 .426.106.798.318 1.117.584.318.16.584.16.85 0 1.117-1.223 1.967-2.605 2.499-4.147.159-.532.372-1.116.638-1.701.16-.85.372-1.648.691-2.392.053-.691.213-1.329.372-1.967.159-.744.319-1.435.425-2.18.478-1.169.691-2.392.691-3.721.266-.957.372-1.966.478-2.976.16-1.383.053-2.658-.265-3.881h-.426c-.213.213-.425.372-.691.584a1.71 1.71 0 01-.798 1.117c-.266.372-.478.744-.744 1.063-.318.532-.744 1.063-1.116 1.595.053-.213.159-.372.213-.478-.372.904-.957 1.648-1.701 2.339-.532.904-1.063 1.754-1.541 2.658-.372.904-.851 1.754-1.329 2.552-.266.691-.532 1.382-.851 2.02.213-.638.372-1.223.585-1.807-.798.797-1.169 1.648-1.063 2.658v.425c-.159.159-.159.266 0 .478.053.532-.106 1.01-.425 1.435-.053.372-.213.638-.425.904-.213.372-.478.584-.904.584-.266.319-.532.425-.904.213a2.953 2.953 0 01-.638-.213.808.808 0 01-.691-.159c-.851-.319-1.542-.851-2.18-1.542-.638-.798-1.01-1.754-1.117-2.871.107-.372.319-.691.638-1.01.425-.478.691-1.01.904-1.542.319-1.116.744-2.18 1.276-3.242a.573.573 0 00-.585 0h-1.807c-.266.213-.478.159-.585-.213-.532-.16-1.01-.372-1.382-.692-.213-.159-.426-.213-.691-.159-.266 0-.478-.159-.585-.478-.319-.585-.159-1.063.425-1.489.372-.532.744-1.116 1.063-1.754a16.152 16.152 0 012.658-2.392c.478-.213.85-.532 1.116-1.01.372-.531.798-.957 1.276-1.382a50.436 50.436 0 002.871-2.977 8.55 8.55 0 011.595-1.116 3.643 3.643 0 011.541-.691c.426-.16.798-.425 1.117-.851.638-.372 1.169-.957 1.541-1.754.585-1.276 1.329-2.393 2.233-3.456.213-.585.585-1.117 1.01-1.542l.691-.691c.213-.213.426-.478.691-.798.426-.532.904-.904 1.489-1.116a2.768 2.768 0 011.542-.478l.638-.319c.16 0 .319-.053.478-.266.266.107.585.107.851 0 .425.162.744.428.957.853zm-13.237 25.145c-.053.16-.159.319-.266.478-.053.213-.106.478-.213.638-.106.425-.372.797-.638 1.116v.372c-.213 0-.266.053-.266.265-.107.213-.266.426-.372.638a2.02 2.02 0 01.638-.904 3.81 3.81 0 00.85-1.276 23.927 23.927 0 001.542-2.765c-.159-.053-.319 0-.425.159a6.05 6.05 0 00-.85 1.279zm21.105-9.941c1.009.691 1.966 1.382 2.817 2.18.85.904 1.594 1.86 2.233 2.818.372.478.691 1.009.957 1.541 0 .478.213.904.638 1.276-.106.107-.106.107 0 0 .213.532.532 1.063.851 1.542.266.638.584 1.275.957 1.914-.107 1.223-.532 2.339-1.329 3.296-.691.053-1.382.053-2.073 0-.319.16-.691.107-1.063-.213-.798.159-1.542.053-2.18-.425-.372-.213-.691-.532-.957-.904-.213 0-.425-.107-.638-.213-.213-.213-.426-.425-.585-.638-.266.159-.372.053-.266-.213a4.7 4.7 0 00-.904-.425h.478c-.159 0-.319-.107-.478-.266.159 0 .266-.053.266-.213-.213-.16-.478-.266-.744-.372-.053-.106-.053-.159 0-.266-.319 0-.638-.053-.851-.213h-1.063c.053-.159.213-.319.425-.425.266-.213.478-.478.638-.904.426-.638.744-1.276 1.063-1.861.585-.691.585-1.382 0-2.02-.319-.426-.691-.851-1.063-1.276-.053-.266-.213-.478-.372-.638-.425-.265-.798-.478-1.169-.691-.266-.106-.585-.266-.851-.372a3.416 3.416 0 01-2.02-1.383 4.46 4.46 0 01.85-.638c.319-.159.638-.266.957-.372.266-.319.638-.426 1.063-.426.266-.106.478-.213.638-.478a6.128 6.128 0 013.775 1.278zM400.943 18.399c.425.159.797.372 1.115.638.107.107.16.266.16.425.107.319.053.585-.16.798-.425.957-.957 1.808-1.754 2.552-.692.957-1.435 1.914-2.127 2.976-.85.744-1.54 1.701-2.072 2.765.159 0 .159.107 0 .213-.267.16-.32.372-.213.585-.212.318-.425.691-.638 1.063-.212.478-.052.798.427.851.425.106.85.159 1.329.213 1.7.478 3.296 1.169 4.838 2.126.797.478 1.382 1.117 1.86 1.914a3.105 3.105 0 011.223 2.34c0 .957.052 1.914.212 2.924h-.212c.159.372.265.797.212 1.223-.053.372-.107.744-.212 1.063.265.372.265.692 0 1.117-.053.372 0 .638.212.744v.85c.053.372-.053.744-.212 1.01-.053.532-.107 1.063-.16 1.542v-.213a6.25 6.25 0 00-.425 1.648c-.213.584-.372 1.116-.425 1.701.105.266.053.425-.213.584.107.266.053.319-.213.266.053.319-.052.585-.212.851v.638l-.213.213c-.797 1.542-1.7 3.03-2.764 4.412a8.615 8.615 0 01-1.648 2.286c-.584.744-1.115 1.435-1.647 2.126-.585.638-1.17 1.276-1.755 1.86-.69.744-1.487 1.383-2.285 1.967a7.19 7.19 0 00-1.914 1.489c-.372.213-.797.425-1.222.638a1.65 1.65 0 00-.267.372 2.234 2.234 0 00-.744.478c-.107.213-.213.425-.425.585h-.267c.213-.266.478-.585.692-.851-.16.053-.213.159-.213.266.213-.319.478-.532.797-.691h.16c.053-.107.16-.213.267-.372.052 0 .159-.053.212-.213-.265.107-.532.213-.85.425.16-.106.265-.159.372-.213 0-.159.053-.213.267-.213.265-.425.637-.797 1.062-1.116-.318.213-.584.425-.85.638a2.68 2.68 0 01-.85.478c0 .053.107.053.212 0-.105.213-.212.213-.425 0 .373-.266.638-.532.852-.904.425-.372.85-.798 1.222-1.223a25.55 25.55 0 001.914-2.286 19.958 19.958 0 002.285-5.103c-.212.053-.212 0 0-.213.267-.318.427-.691.427-1.063.372-.532.584-1.063.637-1.701.267-.585.372-1.223.425-1.861.053-.372.107-.744.267-1.063.107-.319.212-.585.372-.904v-2.285c.053-.532.107-1.063.213-1.648v-2.552a1.798 1.798 0 010-1.063v-3.508c-.213-.744-.478-1.489-.852-2.126a3.111 3.111 0 00-1.7-1.276h-.585c-.053.213-.053.319 0 .425a2.014 2.014 0 01-.904.425c-.318.213-.692.426-1.063.638.213-.478.585-.744 1.063-.851.372-.106.585-.318.692-.638-.267.213-.585.266-.905.266 0 .159.053.213.213.159-.213 0-.425.053-.585.213-.265.213-.425.372-.478.638-.212-.053-.372.053-.425.213-.213.266-.425.532-.744.85-.585.585-1.117 1.276-1.489 2.074-.478.478-.852 1.063-1.01 1.754-.532.318-.745.797-.692 1.382-.478.213-.744.584-.85 1.063-.16.16-.213.372-.213.585-.105.107-.265.266-.425.425-.053.213-.159.319-.372.426-.16.265-.318.478-.425.691-.478.106-.904.053-1.329-.213a6.939 6.939 0 01-1.648-1.436 51.968 51.968 0 01-1.223-2.392 7.639 7.639 0 01-1.7-2.02c-.585-.532-.904-1.17-1.063-1.967v-.585c-.053-.213.053-.266.213-.213.105-.213.265-.425.372-.638.213-.16.372-.372.478-.638.425-.318.744-.744 1.01-1.275.85-1.117 1.647-2.286 2.339-3.562a60.182 60.182 0 014.838-6.166c1.807-1.967 3.721-3.721 5.848-5.21.585-.425 1.117-.851 1.702-1.276.584-.372 1.115-.744 1.7-1.063a25.468 25.468 0 001.702-.851c.577-.319 1.216-.478 1.854-.425zM444.213 24.247c.107.584.16 1.169.213 1.754-.053.425-.16.744-.478 1.009h.265a1.802 1.802 0 00-.478.744v.638c.213.425.585.691 1.117.797a8.394 8.394 0 011.542.744c.53.319 1.062.692 1.594 1.117h.585c.267.159.585.318.904.372.532 0 1.063.107 1.542.425.85.372 1.435 1.063 1.702 1.967-.107-.213-.213-.213-.213 0 .107.213.16.426.213.692-.213.478-.532.904-.852 1.275-.159.426-.318.744-.478 1.063-.585.585-1.169 1.169-1.7 1.807-.425.798-1.01 1.436-1.702 1.967-.318.266-.478.478-.478.638-.107.053-.159.159-.212.266h.212c-.372.106-.69.318-.904.638h-.797c.053-.213.159-.266.318-.213-.053.053-.107.106-.16.213.213-.159.427-.319.638-.425.213 0 .425-.053.692-.213-.16-.16-.267-.16-.425 0a.399.399 0 01-.478 0c-.267.213-.532.318-.798.425a1.666 1.666 0 01-.478.585c.16 0 .32-.107.478-.213-.212.16-.372.319-.478.478v-.265c-.372.318-.744.638-1.169.904-.107.266-.267.425-.373.478a3.969 3.969 0 01-.637.372c-.16 0-.32.107-.425.372.052-.266-.107-.266-.478 0-.267.053-.427.213-.427.478-.265.213-.584.425-.85.638-.318.053-.478.16-.425.266a.647.647 0 00-.478.213v.425a.455.455 0 010 .372h.265c.053.478-.052.957-.265 1.382.053.266.053.532 0 .851-.107.372-.107.85 0 1.329v1.117c0 .213.053.425.265.584-.159.16-.159.319 0 .478.16.904.32 1.861.478 2.818v-.426a2.639 2.639 0 000 .904c.107.213.16.425.16.638.213.372.213.798 0 1.276 0 .319.107.532.425.638.852.478 1.649 1.01 2.392 1.542a61.358 61.358 0 002.392 1.542 79.092 79.092 0 014.201 3.189c.69.798 1.489 1.542 2.339 2.233.265.266.425.532.478.851.265.478.16.638-.265.478-.107.318-.267.372-.585.213-.107-.107-.16-.107-.267 0-.265.053-.478 0-.69-.213-.745.053-1.542.106-2.392.213.69-.425.85-.851.425-1.382-.267 0-.532-.053-.852-.16h-.584c-.798-.106-1.542-.425-2.18-.85a8.943 8.943 0 01-2.179-.904c-.904-.425-1.755-.797-2.659-1.063-.318-.213-.638-.425-.904-.691h-.425c-.213.213-.213.372 0 .478a5.071 5.071 0 01-1.755 1.914c.267.106.267.159 0 .266-.105.053-.265.106-.425.213-.159.213-.372.372-.637.372.159 0 .212.107.212.266-.372.053-.69.107-1.01.16.267.266.213.318-.265.266-.053.213-.213.265-.425.213-.32.478-.745.797-1.33.904h-1.275c-.638.266-1.169.159-1.542-.213a20.197 20.197 0 01-3.189-.904c-1.223-.426-2.285-.904-3.349-1.542-1.01-.585-1.967-1.329-2.871-2.18-.16-.372-.427-.691-.638-1.063-.478.053-.85-.159-1.063-.638a1.355 1.355 0 01-.85-.851c-.213-.584-.107-1.063.212-1.541.478-.904.905-1.754 1.277-2.605.159-.106.265-.159.425-.213-.107-.213 0-.372.265-.425 0-.213.16-.372.373-.425a1.03 1.03 0 01.478-.478c.159-.16.372-.266.637-.213a2.674 2.674 0 011.542-.638 7.764 7.764 0 013.296.213c.478.107.957.266 1.489.426.585.053 1.17.159 1.702.213 1.063.053 2.074.213 3.082.478.427.053.852.106 1.33.159 0-.532-.16-1.063-.425-1.489a215.54 215.54 0 00-.478-3.03 4.08 4.08 0 01-.16-1.595c-.267-.532-.318-1.116-.267-1.701-.265.107-.478.213-.637.425-.107-.053-.107-.106 0-.213a15.66 15.66 0 01-2.817.426c-.32.213-.692.266-1.117.213-.267.213-.532.266-.904.213-.425.159-.957.213-1.489.159a4.719 4.719 0 00-1.223 0c-.478.053-.957 0-1.382-.159-.532-.425-1.01-.851-1.542-1.276-.159-.106-.159-.266 0-.478.16.107.267.159.425.213-.105-.213-.212-.372-.425-.478.16-.266.32-.532.425-.798a3.846 3.846 0 011.117-1.329 23.897 23.897 0 011.914-2.126c.32-.16.638-.266.904-.426.267-.213.478-.478.745-.638.372-.585.904-1.063 1.435-1.542.372-.106.638-.318.744-.638.32-.319.532-.585.745-.904.585.106.585.318 0 .691-.32.532-.478 1.116-.585 1.754.532.478 1.01 1.063 1.489 1.701a7.505 7.505 0 002.179 0v-3.243c-.052-.638.053-1.223.267-1.808-.16-.372-.16-.85 0-1.329V34.93c-.478.213-.85.532-1.117.85a19.442 19.442 0 01-3.242 1.808c-.267.213-.478.372-.692.584-.318-.159-.532-.053-.69.266l-.798.478c-.265.053-.532.16-.69.372v-.213c-.32.053-.478.266-.425.691-.32.319-.585.691-.798 1.063-.425.265-.904.425-1.382.425a28.374 28.374 0 01-1.117-.16h-1.7c-.638.266-1.223.319-1.807.16-.213.425-.478.532-.852.266-.105-.266 0-.372.267-.426v-.474c-.107-.213-.16-.372-.267-.478-.318-.478-.265-1.009.267-1.489l1.914-2.871c.532-.797 1.222-1.435 2.02-1.967a2.148 2.148 0 011.01-.425c.585-.372 1.169-.744 1.754-1.063.85-.744 1.86-1.436 2.871-1.967.32-.266.692-.532 1.117-.692h.638l.797-.638a7.094 7.094 0 001.595-.638c.532-.266 1.115-.372 1.754-.426.478-.265.957-.478 1.435-.691.318-.318.478-.744.425-1.275-.053 0-.053-.053 0-.213a.396.396 0 000-.478c0-.213.16-.372.478-.425.16-.425.267-.85.213-1.276.159-.478.318-.957.425-1.329 0-.266.053-.425.212-.478v-.16c.32-.053.427-.159.267-.425.265-.053.532-.213.85-.478a6.51 6.51 0 011.063-.425c.372-.159.692-.372.904-.691.16-.107.318-.053.425.266.267.213.585.425.852.638.951 1.115 1.641 2.338 2.173 3.721zm-21.264 35.511c-.372-.107-.638.053-.904.425-.16.159-.32.319-.478.425v.691c.159.053.159.107 0 .266.053.053.105.213.212.425.32.478.745.798 1.329.958 1.277.584 2.605.957 3.934 1.169h1.117c.267.159.532.213.85.213a6.278 6.278 0 001.967-.478c.478-.053.798-.266 1.117-.638.638-.372 1.117-.904 1.489-1.488a7.04 7.04 0 00-1.489-.16c-.372-.213-.744-.318-1.117-.266-.372-.053-.69-.213-1.01-.478-.584-.053-1.169-.159-1.647-.425-.904-.213-1.808-.372-2.712-.425-.797 0-1.542-.053-2.232-.213-.161.105-.319.105-.426-.001zm19.775-27.697c-.212.372-.425.744-.69 1.169a2.707 2.707 0 00-.213 1.701c-.318.318-.478.798-.425 1.329-.267.266-.267.426 0 .585-.16.213-.267.425-.213.744-.425.478-.585 1.063-.585 1.701-.265.425-.372.904-.265 1.329.16-.053.265-.213.265-.478v.213c.213.053.267 0 .16-.213a1.42 1.42 0 01.638-.159v-.213c.532-.319 1.063-.585 1.542-.851.637-.425 1.169-.957 1.489-1.595.105-.319.212-.585.265-.851.213-.425.478-.797.904-1.063.107-.266.267-.532.372-.744.053-.107.107-.266.16-.425.213-.372.107-.638-.318-.851a1.664 1.664 0 01-.478-.904c-.107-.319-.267-.478-.638-.425-.265-.213-.585-.266-.957-.213-.107.107-.213.107-.318 0-.323-.105-.588-.051-.695.214zM497.69 22.917c.372.426.744.798 1.169 1.063a10.29 10.29 0 011.277 2.817c.265.213.265.478 0 .691-.16.16-.267.372-.213.638.053.584-.107.744-.638.478-.265.213-.532.425-.85.532a1.098 1.098 0 01-.532.744c-.265.159-.318.266-.212.425v.266a.824.824 0 00-.425.425.364.364 0 00-.373.372c0 .213.053.426.107.638.532-.053.957.053 1.435.213.797.372 1.435.957 1.914 1.754v1.116c-.265.319-.532.638-.904.851A6.332 6.332 0 01497 37.215c-.797.107-1.489.478-2.127 1.063-.318.266-.584.532-.797.904-.213.266-.425.585-.692.851a1.881 1.881 0 00-.212.904c-.372.372-.638.798-.692 1.276a5.098 5.098 0 01-.425 1.542c-.107.425-.318.797-.637 1.222-.053.532-.16 1.01-.267 1.542a15.776 15.776 0 01-.904 3.456 6.69 6.69 0 01-.16 1.489c-.107.797-.425 1.489-.85 2.18-.16.478-.478.85-.904 1.063a3.58 3.58 0 01-1.595.692c-.425-.053-.85 0-1.222.159-.478-.266-.904-.585-1.33-.851-.425-.213-.637-.584-.637-1.063a2.009 2.009 0 01-.692-1.542c-.16-.532-.318-1.116-.478-1.701a15.863 15.863 0 00-.957-2.18c-.425-1.01-.532-2.073-.425-3.243-.213.213-.425.266-.692.213-.053.213-.212.265-.478.213-.265.106-.532.213-.797.266-.425.159-.797.266-1.17.425-.372 0-.69.159-.904.425a31.562 31.562 0 01-.585 1.701c-.372 1.117-.478 2.286-.425 3.509-.105.904.053 1.754.425 2.605-.212.798 0 1.595.585 2.339 1.117 2.02 2.659 3.509 4.626 4.572a.728.728 0 00.585.425c.637.159 1.169.425 1.594.797 1.117.319 2.18.585 3.244.851a19.139 19.139 0 005.474 1.276c.957.159 1.914.318 2.819.478.372.106.797.159 1.169.213.318.053.692-.053 1.01-.213.425.053.797-.053 1.17-.266.425-.107.744-.319 1.01-.532h.69c.267.053.478.107.692.159 0 .107.053.16.212.16v-.16c.16.16.373.266.638.372.107.213.213.372.425.478-.585.478-1.222.744-1.967.904h-1.222a2.392 2.392 0 00-1.223 0c-.372 0-.69-.159-.904-.478a8.149 8.149 0 01-1.222.266 3.798 3.798 0 01-2.18 0c-.478-.053-.957-.213-1.329-.478h-1.329a3.62 3.62 0 01-2.127 0c-.372-.213-.745-.266-1.17-.213-.478-.107-1.01-.159-1.489-.213a6.452 6.452 0 01-2.817-.478c-1.967-.372-3.827-.904-5.688-1.701-1.914-.532-3.509-1.595-4.838-3.19a9.744 9.744 0 01-1.489-2.605c-.478-.798-.797-1.649-.904-2.605-.16-.372-.213-.797-.16-1.275v-1.754c.107-1.063.267-2.18.425-3.243-.372.213-.85.372-1.329.478h-1.117c-.425.107-.85.266-1.329.372-.267.159-.425.159-.638 0-.265-.107-.532-.107-.85 0-.425-.053-.85-.107-1.329-.16h-.85c-1.01-.159-1.649-.691-1.915-1.595-.212-1.117.16-2.02 1.01-2.818.373-.213.745-.478 1.117-.744.267-.053.478-.213.638-.479.318-.265.585-.372.904-.425.318-.318.69-.638 1.063-.85.584-.213 1.063-.585 1.542-1.063a.672.672 0 00.637 0c.267-.159.478-.266.692-.478.585-.372 1.169-.585 1.754-.585h.213c-.425.266-.904.532-1.33.851.16 0 .213.053.213.213a1.838 1.838 0 00-.638.638c-.532.213-.69.478-.425.798 0 .213-.053.266-.212.266a.839.839 0 01-.267.638c-.159.372-.212.692-.159 1.063.69.372 1.487.478 2.339.159h.904c.265-.638.478-1.329.638-2.126.105-1.063.159-2.233.212-3.402.107-.638-.053-1.223-.425-1.754-.478-.106-.744-.372-.85-.85.107-.107.159-.266.212-.425v-.213c.213-.16.213-.319 0-.426.32-.425.532-.85.638-1.329a4.853 4.853 0 001.275-1.063 8.08 8.08 0 011.755-1.116 13.3 13.3 0 012.02-.798c.584.213 1.169.266 1.807.213.212.266.478.372.797.372.425.106.745.265 1.117.425.318.372.692.638 1.063.904.107.744.212 1.489.372 2.18-.107.798-.16 1.595-.213 2.339v.85c.107.319.16.638.213.904-.16.16-.213.372-.213.691v.851c0 .159.107.213.213.213.16.213.213.213.213 0 .159.372.372.372.69 0a4.921 4.921 0 011.542-.904c1.01-.372 1.807-.957 2.339-1.754.16-.478.318-1.01.478-1.489.053-.478.213-1.01.425-1.489.478-.957.904-1.967 1.17-3.083.478-.904.85-1.808 1.275-2.817.373-1.17.957-2.286 1.755-3.19.797-2.02 2.285-3.243 4.359-3.721.212 0 .212-.053 0-.213.212.053.425.106.69.213.272.158.537.318.804.424zm-18.5 15.364a9.16 9.16 0 00-.373.691c-.478.425-.797 1.063-.957 1.754-.159.372-.318.691-.478 1.063v.584h-.212c.318.744.85.851 1.647.266a10.125 10.125 0 011.915-.638c-.267-.478-.373-.957-.427-1.542.107-.798-.105-1.542-.69-2.18-.16.055-.32.055-.425.002zm6.113 4.572c-.107-.053-.212-.106-.265-.213-.16.159-.267.319-.425.425h-.213c-.532.16-.957.478-1.329.904-.532.053-.852.318-.904.797v.638c.159.266.265.584.212.904l.478 1.914c.107.532.267 1.063.478 1.542.107.584.32 1.169.638 1.701 0 .213.053.318.212.425.053.159.107.266.213.425.107 0 .107.053 0 .213.213.213.425.478.638.692.372-.319.532-.638.478-1.117.265-.213.372-.584.372-1.01.212-.531.107-.957-.16-1.329-.212-1.01-.265-2.02-.212-3.03v-2.392a4.632 4.632 0 000-1.701c-.105-.001-.211.052-.211.212zM538.565 20.313c1.277.638 2.234 1.648 2.871 2.977.427.478.692.957.852 1.541a.786.786 0 000 .692 2.585 2.585 0 01-.425 1.116c-.16.585-.427 1.169-.692 1.754a6.426 6.426 0 01-1.275 1.116 3.36 3.36 0 00-1.117 1.595c-.372.478-.692.957-.85 1.541-.053-.159 0-.266.105-.213-.159.266-.372.478-.584.691-.213.319-.213.319 0 0-.267.107-.585.266-.905.426.213.213.373.213.478 0 .053.213-.052.372-.265.425h-.213c0-.053.053-.107.213-.213-.318.159-.478.213-.425.213a.396.396 0 000 .478c-.318-.16-.532 0-.638.425-.212.425-.425.904-.637 1.329-.32.106-.532.213-.692.478 0 .159-.053.213-.265.213a3.731 3.731 0 01-.16.425v.266c-.107.106-.16.266-.267.372-.159.16-.318.319-.372.532-.107.159-.107.319 0 .425-.212.053-.265.16-.265.213-.16.213-.267.372-.425.478-.16.213-.32.425-.478.638-.213.107-.213.213 0 .213-.107.159-.213.213-.427.213.16-.053.16-.106 0-.213-.212.107-.265.213-.212.425 0 .107-.107.266-.425.532.159.053.318.107.425.159-.107.266-.267.478-.425.692l-.638.638v-.213a2.31 2.31 0 00-.692.904c-.052.213-.212.478-.478.691.16-.213.32-.266.478-.213-.105.319-.372.372-.637.213-.053.16 0 .213.159.213-.265 0-.425.16-.372.426.107-.213.213-.213.213 0 .265-.16.478-.372.637-.638a2.705 2.705 0 00-.478.851c-.159.213-.425.372-.637.478-.053-.372.107-.585.478-.691-.32 0-.532.159-.638.478a1.446 1.446 0 00-.532.904c.213-.107.372-.266.532-.478-.053.319-.212.478-.532.478-.159.107-.159.213 0 .213a1.62 1.62 0 01-.425.425c.16-.213.267-.213.267 0-.213 0-.267.053-.267.213h.267c-.213-.053-.373.053-.478.265h.478l-.478.16v-.16c-.107.107-.213.266-.213.426.213-.107.478-.213.692-.266-.107.213-.267.318-.478.266-.107.159-.213.266-.213.425-.16 0-.213-.053-.16-.159-.318.318-.585.691-.69 1.063-.16.213-.32.478-.425.691.265.053.318-.053.159-.213.213-.425.532-.744.957-.904-.105.106-.212.159-.265.213.212 0 .212.107 0 .213-.16.053-.213.107-.213.213.107-.159.267-.213.478-.213-.265.213-.425.425-.478.691-.107 0-.159.053-.212.213a1.044 1.044 0 00-.692.479c-.107.213-.212.425-.425.584.318 0 .372-.159.213-.372.105.106.159 0 .212-.213v.213c.053-.107.16-.16.267-.213v.478a62.372 62.372 0 011.967-1.861c.265-.266.53-.478.85-.638.053-.213.159-.319.265-.425-.053-.266 0-.532.213-.692.053-.265.212-.478.372-.691 0-.266.16-.584.478-.904.265-.478.638-.798 1.117-1.116a6.354 6.354 0 001.063-.426c.265-.213.584-.266.904-.213.212.16.425.213.637.213.798.478 1.595.851 2.392 1.117a5.238 5.238 0 011.862 2.18c-.16.159-.267.372-.267.532 0 .213-.053.425-.212.638-.16.585-.373 1.116-.692 1.595-.372.426-.638.957-.85 1.489a6.037 6.037 0 01-.425 1.808c.053.372.053.744 0 1.169-.32.532-.373 1.116-.213 1.754-.212.425-.212.798 0 1.169a6.064 6.064 0 010 1.967c.213.425.318.904.425 1.329.267.478.638.957 1.063 1.329.85.798 1.914 1.329 3.137 1.542.318.053.584.106.85.213 4.519-.585 8.027-2.765 10.579-6.645 1.275-1.595 2.392-3.296 3.296-5.103 1.063-1.86 1.808-3.774 2.234-5.848-.053.798-.16 1.648-.267 2.445-.107.213-.159.425-.212.691 0 .478-.053.904-.213 1.383a20.825 20.825 0 00-1.542 3.083c-.265.532-.532 1.063-.904 1.541a4.615 4.615 0 00-.85 1.383 17.766 17.766 0 01-1.754 3.296 22.39 22.39 0 01-1.808 2.445 76.904 76.904 0 01-2.392 1.967c-1.595 1.595-3.509 2.605-5.741 3.19-.478.159-1.01.213-1.542.213-.478.159-1.01.213-1.595.213a10.003 10.003 0 01-2.764-.691c-2.179-1.063-3.721-2.711-4.678-4.891a26.137 26.137 0 01-1.117-5.741c0-1.808.107-3.615.265-5.369-.318.159-.637.372-.85.691-.318.425-.69.904-1.115 1.276-.638.691-1.17 1.435-1.542 2.233-.267-.107-.373-.053-.425.213-.16.159-.213.318-.267.478v-.48c-.904.797-1.489 1.701-1.7 2.711a2.04 2.04 0 00-.692 1.169c-.213.691-.692 1.276-1.329 1.754-.638.584-1.117 1.223-1.542 1.966a12.866 12.866 0 00-1.542 2.233 4.58 4.58 0 00-1.329 1.542c-.425.798-1.01 1.01-1.755.691a11.888 11.888 0 01-2.019-1.169 6.853 6.853 0 01-1.755-1.754c-.585-.638-.957-1.329-1.063-2.18v.213a1.98 1.98 0 000-1.116c-.052-.319 0-.585.213-.851a7.49 7.49 0 00.425-.957c.213-.106.425-.266.692-.372.053-.16.105-.319.159-.478.107 0 .213-.053.267-.213.744-.16 1.275-.532 1.7-1.17a.485.485 0 01.532 0c.267-.213.478-.531.638-.85.265-.319.532-.638.85-.904.478-.585.85-1.17 1.117-1.808.265-.266.478-.532.69-.904.16-.425.427-.851.638-1.276.478-.798.904-1.648 1.329-2.499.852-1.648 1.702-3.296 2.605-4.943.478-.798.904-1.595 1.329-2.445.425-.904.904-1.701 1.542-2.445.318-1.01.745-1.914 1.382-2.711.425-.585.745-1.276.852-1.967.159-.213.265-.425.425-.691.159-.213.265-.372.425-.425h-.16c.107-.213.16-.213.16 0v-.478c.107-.053.159-.107.265-.213a7.42 7.42 0 01.585-1.117c.107-.266.16-.478.265-.691a18.19 18.19 0 001.755-4.04c.16-.266.318-.532.478-.851a3.008 3.008 0 00-.478-.904c-.372-.213-.532-.532-.425-.904a.674.674 0 000-.638c.265-.053.425-.213.425-.425.212 0 .318-.159.212-.532.32-.053.532-.159.692-.425.532-.319 1.117-.532 1.702-.691a9.171 9.171 0 011.966-.851 5.14 5.14 0 012.496-1.168zm-11.483 34.926l-.85.851c.212-.426.585-.798 1.063-1.063-.106-.001-.213.053-.213.212zm3.509-13.131c-.053.213-.213.266-.425.16.159-.106.319-.16.425-.16v-.266h.265c-.211.054-.265.16-.265.266.159-.106.318-.213.478-.266-.159.054-.319.16-.478.266zM576.997 62.628c0 1.276-.32 2.499-.957 3.668a4.786 4.786 0 01-2.765 2.233c-1.594.957-3.189 1.169-4.891.638-.69 0-1.222-.266-1.647-.744-.478-.478-.957-.85-1.542-1.116a2.356 2.356 0 00-1.702-.16 6.49 6.49 0 01-1.115-3.402c-.053-1.276-.053-2.498-.053-3.774.107-1.648.797-2.871 2.126-3.615 1.277-.798 2.552-1.383 3.934-1.701a19.09 19.09 0 013.456.159c1.17.107 2.234.532 3.296 1.169 1.275 2.021 1.913 4.253 1.86 6.645zm-7.125-6.006c-1.489 0-2.817.478-3.934 1.382-.904.798-1.435 1.807-1.54 3.03a10.96 10.96 0 00.265 3.509c.692 1.169 1.595 1.808 2.764 1.967 1.17.159 2.287.159 3.402.053a17.931 17.931 0 002.18-1.276c.69-.478 1.169-1.169 1.489-2.02.053-.85.107-1.701.053-2.605-.053-.957-.478-1.595-1.277-2.02-.796-1.383-1.966-2.074-3.402-2.02z"/></g></svg>