<svg xmlns="http://www.w3.org/2000/svg" viewBox="0 0 148 16"><path d="M12.484 11.293c.983-2.712 2.239-7.081 2.803-9.811l2.785.691c-1.129 3.84-3.258 10.028-4.368 12.467l-2.311.346c-.472-1.456-1.384-3.767-2.075-5.351-.655 1.474-1.656 3.531-2.474 5.005l-2.311.346C3.621 11.384 1.11 4.595 0 2.32l2.803-.965c.928 2.311 2.803 8.063 3.258 10.047.564-.982 1.384-2.857 1.783-3.912-.509-1.383-1.491-3.513-2.347-5.186l2.366-1.11c.454 1.165 1.074 2.93 1.474 4.132.437-1.092 1.02-2.948 1.31-4.077l2.493.91c-.546 1.384-1.656 3.858-2.257 5.077.581 1.255 1.201 2.911 1.601 4.057zM27.198 12.057l-.364 2.529h-7.116l.364-10.646-.91.09V1.719l7.954-.346-.274 2.366-4.114.182-.109 2.912 3.84-.127-.255 2.348-3.658.092-.073 3.185c1.712 0 3.441-.074 4.715-.274zM29.086 4.395l-.291-2.493a24.118 24.118 0 015.204-.601c3.258 0 4.623 1.184 4.623 3.221 0 1.748-1.347 2.711-2.294 3.13l-.034.056c1.329.383 2.84 1.347 2.84 3.312 0 1.548-.673 2.458-1.802 3.186-.783.509-1.748.783-3.221.783-1.474 0-3.094-.127-4.349-.291l.401-10.592c-.257.034-.713.162-1.077.289zm3.44 8.118c.454.145 1.11.237 1.693.237.636 0 1.237-.073 1.546-.328.382-.291.528-.765.528-1.474 0-1.055-.892-1.912-2.985-2.147l.419-1.875c.528 0 .91-.018 1.147-.092.528-.218 1.002-1.02 1.002-1.783 0-.728-.346-1.566-1.93-1.566-.327 0-.873.055-1.165.127l-.255 8.901zM41.473 13.66c1.474-1.947 2.057-4.877 2.057-10.21 0-1 0-1.31-.055-2.948h2.493v.401l10.03-.82-.583 4.277-9.447.746c-.109 4.714-.801 7.862-2.202 9.937l-2.293-1.383zm3.423.217l5.005-.182v-.783l-3.276.164-.073-1.693 3.349-.182v-.928c-.801.127-1.728.237-2.64.309l-.654-1.82c.2 0 .654-.018 1-.036.182-.291.346-.565.673-1.274l-1.875.145-.09-1.693 9.336-.71.129 1.711-1.693.127c.836.783 1.656 1.638 2.221 2.348l-1.767 1.147c-.255-.346-.309-.437-.654-.892-.364.073-.655.127-1.583.291v1.147l3.512-.182.092 1.728-3.603.182v.801l5.259-.201.092 1.802-12.668.437-.092-1.763zm1.109-10.392l7.116-.565.146-.965-7.26.655v.874h-.002zm7.262 3.604l-2.548.182c-.255.454-.583.947-.855 1.329.746-.036 1.748-.109 2.985-.201-.309-.346-.382-.437-.673-.728l-.056-.055 1.147-.527zM66.29 12.912c1.473-.255 2.658-.746 3.621-1.474 1.073-.836 1.511-1.838 1.511-3.495 0-2.348-1.092-3.603-3.405-3.913-.528 2.967-1.311 5.66-2.184 7.517-.691 1.493-1.347 2.112-2.239 2.112-1.893 0-4.296-3.003-4.296-5.369 0-3.386 3.694-6.243 8.099-6.243 4.022 0 6.77 2.458 6.77 6.043 0 3.566-2.092 5.86-6.187 6.789l-1.69-1.967zm-3.368-7.279c-.801.838-1.274 1.802-1.274 2.585 0 .583.235 1.237.673 1.802.29.382.781.764.965.764.473 0 1.601-3.294 2.274-6.588-1.109.29-1.984.763-2.638 1.437zM83.242 13.987c3.057-.654 4.623-1.947 4.623-3.803 0-1.366-.801-2.092-2.457-2.221-.801 1.474-1.675 2.803-2.476 3.75.109.364.309.965.454 1.274l-2.056 1.128a6.761 6.761 0 01-.218-.509c-.892.783-1.912 1.255-2.622 1.255-1.11 0-1.765-1.237-1.765-3.349 0-1.546.308-2.129 1.674-3.149.547-.401 1.037-.673 1.893-1.055.037-1.347.055-2.147.073-2.566-.873-.018-1.748-.073-2.457-.182l-.073-2.292c.928.2 1.874.327 2.658.364.018-.454.073-1.11.182-2.584l2.53.309c-.127.71-.255 1.548-.327 2.148.947-.237 1.51-.619 1.802-1.184l1.965 1.219c-.601 1.202-2.002 1.93-4.022 2.112-.055.746-.127 1.62-.146 1.93a12.65 12.65 0 011.602-.291c.018-.055.073-.182.164-.401.164-.419.272-.728.327-.929l1.947.601-.219.528c-.073.164-.073.164-.109.237 2.73.346 4.223 1.783 4.223 4.077 0 2.711-2.057 4.66-5.696 5.406l-1.474-1.823zm-4.386-2.603c0 .583.109.91.29.91.274 0 .728-.309 1.44-.947a18.8 18.8 0 01-.219-1.965c-1.346.91-1.511 1.11-1.511 2.002zm3.386-2.893c.018.164.018.182.037.619 0 .274.018.528.036.691.255-.382.437-.71.892-1.601a6.813 6.813 0 00-.965.291zM98.885 8.873v.473c0 1.583.055 3.149.183 4.714.018.092.018.164.018.218 0 .456-.255.728-.947 1.037-.364.164-1.02.327-1.256.327-.218 0-.272-.109-.308-.509.018-.636-.419-1.219-1.456-1.893l.437-1.401c.473.274.837.437 1.129.51l-.019-2.258a95.516 95.516 0 00-2.585 2.348l-1.364-1.984a24.826 24.826 0 003.948-3.677l.019-.855c-.929.473-1.821.765-2.84.873l-.401-2.294c1.002-.018 1.893-.237 3.276-.801.019-.765.037-1.292.109-3.386l2.366.201-.182 3.022.801.601c-.237.235-.401.417-.874.946l-.036 1.185a34.405 34.405 0 015.15-3.64l1.856.984c-.382 2.402-.601 4.895-.601 6.715 0 1.274.164 1.583.801 1.583.672 0 1.529-.509 2.457-1.456l.437 2.166c-.818 1.037-2.292 1.802-3.529 1.802-1.675 0-2.585-1.165-2.585-3.294 0-1.42.182-4.132.4-5.842-1.165.691-2.893 1.93-4.404 3.167v.417zM114.31 9.272c-.382.583-.601 1.165-.601 1.566 0 .51.146.765.565.947.636.309 2.001.491 3.495.491 1.51 0 3.093-.146 4.296-.419l.528 2.711c-1.092.146-2.493.237-4.059.237-5.078 0-7.298-1.02-7.298-3.33 0-.892.346-1.912.929-2.658l2.145.455zm.255-3.694c.201-.146.655-.509 1.366-1.074-1.511-.164-2.585-.601-3.495-1.401l1.165-1.856c1.092.801 2.038 1.074 3.676 1.074.892 0 1.93-.092 3.131-.255l.546 2.112c-.309.09-.874.2-1.403.272a22.374 22.374 0 00-3.185 2.147l-1.801-1.019zM131.265 8.873v.473c0 1.583.055 3.149.183 4.714.018.092.018.164.018.218 0 .456-.255.728-.947 1.037-.364.164-1.02.327-1.256.327-.218 0-.272-.109-.308-.509.018-.636-.419-1.219-1.456-1.893l.437-1.401c.473.274.838.437 1.129.51l-.019-2.258a95.516 95.516 0 00-2.585 2.348l-1.364-1.984a24.826 24.826 0 003.948-3.677l.019-.855c-.929.473-1.821.765-2.84.873l-.401-2.294c1.002-.018 1.893-.237 3.276-.801.019-.765.037-1.292.109-3.386l2.366.201-.182 3.022.801.601c-.237.235-.401.417-.874.946l-.036 1.184a34.405 34.405 0 015.15-3.64l1.856.984c-.382 2.402-.601 4.895-.601 6.715 0 1.274.164 1.583.801 1.583.672 0 1.529-.509 2.456-1.456l.437 2.166c-.818 1.037-2.292 1.802-3.529 1.802-1.675 0-2.585-1.165-2.585-3.294 0-1.42.182-4.132.4-5.842-1.165.691-2.893 1.93-4.404 3.167v.417h.001zM148 13.495c0 1.274-1.184 2.458-2.458 2.458s-2.456-1.184-2.456-2.458 1.182-2.458 2.476-2.458c1.254.001 2.438 1.202 2.438 2.458zm-3.64 0c0 .673.51 1.184 1.182 1.184.673 0 1.184-.51 1.184-1.184s-.51-1.184-1.202-1.184c-.654.001-1.164.511-1.164 1.184z"/></svg>